{
  "accessors": [
    {
      "bufferView": 0,
      "componentType": 5126,
      "count": 4,
      "max": [
        -0.22344405949115753,
        4.88564920425415,
        5.459801197052002
      ],
      "min": [
        -0.33644405007362366,
        4.88564920425415,
        3.741462230682373
      ],
      "type": "VEC3"
    },
    {
      "bufferView": 1,
      "componentType": 5126,
      "count": 4,
      "type": "VEC3"
    },
    {
      "bufferView": 2,
      "componentType": 5126,
      "count": 4,
      "type": "VEC2"
    },
    {
      "bufferView": 3,
      "componentType": 5123,
      "count": 6,
      "type": "SCALAR"
    },
    {
      "bufferView": 4,
      "componentType": 5126,
      "count": 4,
      "max": [
        -0.3360616862773895,
        4.88564920425415,
        5.459801197052002
      ],
      "min": [
        -0.44906166195869446,
        4.88564920425415,
        3.741462230682373
      ],
      "type": "VEC3"
    },
    {
      "bufferView": 5,
      "componentType": 5126,
      "count": 4,
      "type": "VEC3"
    },
    {
      "bufferView": 6,
      "componentType": 5126,
      "count": 4,
      "type": "VEC2"
    },
    {
      "bufferView": 7,
      "componentType": 5126,
      "count": 4,
      "max": [
        -0.4491329491138458,
        4.88564920425415,
        5.459801197052002
      ],
      "min": [
        -0.5621329545974731,
        4.88564920425415,
        3.741462230682373
      ],
      "type": "VEC3"
    },
    {
      "bufferView": 8,
      "componentType": 5126,
      "count": 4,
      "type": "VEC3"
    },
    {
      "bufferView": 9,
      "componentType": 5126,
      "count": 4,
      "type": "VEC2"
    },
    {
      "bufferView": 10,
      "componentType": 5126,
      "count": 4,
      "max": [
        0.0020125247538089752,
        4.88564920425415,
        5.459801197052002
      ],
      "min": [
        -0.11098746955394745,
        4.88564920425415,
        3.741462230682373
      ],
      "type": "VEC3"
    },
    {
      "bufferView": 11,
      "componentType": 5126,
      "count": 4,
      "type": "VEC3"
    },
    {
      "bufferView": 12,
      "componentType": 5126,
      "count": 4,
      "type": "VEC2"
    },
    {
      "bufferView": 13,
      "componentType": 5126,
      "count": 4,
      "max": [
        -0.1105196624994278,
        4.88564920425415,
        5.459801197052002
      ],
      "min": [
        -0.22351966798305511,
        4.88564920425415,
        3.741462230682373
      ],
      "type": "VEC3"
    },
    {
      "bufferView": 14,
      "componentType": 5126,
      "count": 4,
      "type": "VEC3"
    },
    {
      "bufferView": 15,
      "componentType": 5126,
      "count": 4,
      "type": "VEC2"
    },
    {
      "bufferView": 16,
      "componentType": 5126,
      "count": 4,
      "max": [
        0.11463013291358948,
        4.88564920425415,
        5.459801197052002
      ],
      "min": [
        0.0016301386058330536,
        4.88564920425415,
        3.741462230682373
      ],
      "type": "VEC3"
    },
    {
      "bufferView": 17,
      "componentType": 5126,
      "count": 4,
      "type": "VEC3"
    },
    {
      "bufferView": 18,
      "componentType": 5126,
      "count": 4,
      "type": "VEC2"
    },
    {
      "bufferView": 19,
      "componentType": 5126,
      "count": 4,
      "max": [
        0.2254466861486435,
        4.88564920425415,
        5.459801197052002
      ],
      "min": [
        0.11244668066501617,
        4.88564920425415,
        3.741462230682373
      ],
      "type": "VEC3"
    },
    {
      "bufferView": 20,
      "componentType": 5126,
      "count": 4,
      "type": "VEC3"
    },
    {
      "bufferView": 21,
      "componentType": 5126,
      "count": 4,
      "type": "VEC2"
    },
    {
      "bufferView": 22,
      "componentType": 5126,
      "count": 4,
      "max": [
        0.5622768402099609,
        4.88564920425415,
        5.459801197052002
      ],
      "min": [
        0.4492768347263336,
        4.88564920425415,
        3.741462230682373
      ],
      "type": "VEC3"
    },
    {
      "bufferView": 23,
      "componentType": 5126,
      "count": 4,
      "type": "VEC3"
    },
    {
      "bufferView": 24,
      "componentType": 5126,
      "count": 4,
      "type": "VEC2"
    },
    {
      "bufferView": 25,
      "componentType": 5126,
      "count": 4,
      "max": [
        0.44965919852256775,
        4.88564920425415,
        5.459801197052002
      ],
      "min": [
        0.3366592228412628,
        4.88564920425415,
        3.741462230682373
      ],
      "type": "VEC3"
    },
    {
      "bufferView": 26,
      "componentType": 5126,
      "count": 4,
      "type": "VEC3"
    },
    {
      "bufferView": 27,
      "componentType": 5126,
      "count": 4,
      "type": "VEC2"
    },
    {
      "bufferView": 28,
      "componentType": 5126,
      "count": 4,
      "max": [
        0.33820655941963196,
        4.88564920425415,
        5.459801197052002
      ],
      "min": [
        0.22520656883716583,
        4.88564920425415,
        3.741462230682373
      ],
      "type": "VEC3"
    },
    {
      "bufferView": 29,
      "componentType": 5126,
      "count": 4,
      "type": "VEC3"
    },
    {
      "bufferView": 30,
      "componentType": 5126,
      "count": 4,
      "type": "VEC2"
    },
    {
      "bufferView": 31,
      "componentType": 5126,
      "count": 56008,
      "max": [
        1.5860825777053833,
        1.5224239826202393,
        -2.637056827545166
      ],
      "min": [
        -1.5860812664031982,
        0.009706346318125725,
        -9.42786979675293
      ],
      "type": "VEC3"
    },
    {
      "bufferView": 32,
      "componentType": 5126,
      "count": 56008,
      "type": "VEC3"
    },
    {
      "bufferView": 33,
      "componentType": 5126,
      "count": 56008,
      "type": "VEC2"
    },
    {
      "bufferView": 34,
      "componentType": 5123,
      "count": 66798,
      "type": "SCALAR"
    },
    {
      "bufferView": 35,
      "componentType": 5126,
      "count": 1757,
      "max": [
        0.8752087950706482,
        0.635886549949646,
        0.6419475078582764
      ],
      "min": [
        -0.8752110004425049,
        -0.631532609462738,
        -0.6420185565948486
      ],
      "type": "VEC3"
    },
    {
      "bufferView": 36,
      "componentType": 5126,
      "count": 1757,
      "type": "VEC3"
    },
    {
      "bufferView": 37,
      "componentType": 5126,
      "count": 1757,
      "type": "VEC2"
    },
    {
      "bufferView": 38,
      "componentType": 5123,
      "count": 2496,
      "type": "SCALAR"
    },
    {
      "bufferView": 39,
      "componentType": 5126,
      "count": 1760,
      "max": [
        0.8752090930938721,
        0.635886549949646,
        0.6419472694396973
      ],
      "min": [
        -0.8752106428146362,
        -0.631532609462738,
        -0.6420187950134277
      ],
      "type": "VEC3"
    },
    {
      "bufferView": 40,
      "componentType": 5126,
      "count": 1760,
      "type": "VEC3"
    },
    {
      "bufferView": 41,
      "componentType": 5126,
      "count": 1760,
      "type": "VEC2"
    },
    {
      "bufferView": 42,
      "componentType": 5123,
      "count": 2496,
      "type": "SCALAR"
    },
    {
      "bufferView": 43,
      "componentType": 5126,
      "count": 1762,
      "max": [
        0.8752090930938721,
        0.635886549949646,
        0.6419486999511719
      ],
      "min": [
        -0.8752106428146362,
        -0.631532609462738,
        -0.6420173645019531
      ],
      "type": "VEC3"
    },
    {
      "bufferView": 44,
      "componentType": 5126,
      "count": 1762,
      "type": "VEC3"
    },
    {
      "bufferView": 45,
      "componentType": 5126,
      "count": 1762,
      "type": "VEC2"
    },
    {
      "bufferView": 46,
      "componentType": 5123,
      "count": 2496,
      "type": "SCALAR"
    },
    {
      "bufferView": 47,
      "componentType": 5126,
      "count": 56024,
      "max": [
        1.5860811471939087,
        1.5224238634109497,
        9.371798515319824
      ],
      "min": [
        -1.5860828161239624,
        0.009705455973744392,
        2.5809850692749023
      ],
      "type": "VEC3"
    },
    {
      "bufferView": 48,
      "componentType": 5126,
      "count": 56024,
      "type": "VEC3"
    },
    {
      "bufferView": 49,
      "componentType": 5126,
      "count": 56024,
      "type": "VEC2"
    },
    {
      "bufferView": 50,
      "componentType": 5123,
      "count": 66798,
      "type": "SCALAR"
    },
    {
      "bufferView": 51,
      "componentType": 5126,
      "count": 1762,
      "max": [
        0.8752115368843079,
        0.6358866095542908,
        0.6420042514801025
      ],
      "min": [
        -0.8752085566520691,
        -0.6315326690673828,
        -0.6419625282287598
      ],
      "type": "VEC3"
    },
    {
      "bufferView": 52,
      "componentType": 5126,
      "count": 1762,
      "type": "VEC3"
    },
    {
      "bufferView": 53,
      "componentType": 5126,
      "count": 1762,
      "type": "VEC2"
    },
    {
      "bufferView": 54,
      "componentType": 5123,
      "count": 2496,
      "type": "SCALAR"
    },
    {
      "bufferView": 55,
      "componentType": 5126,
      "count": 1764,
      "max": [
        0.8752112984657288,
        0.6358866095542908,
        0.6420207023620605
      ],
      "min": [
        -0.8752087950706482,
        -0.6315326690673828,
        -0.6419463157653809
      ],
      "type": "VEC3"
    },
    {
      "bufferView": 56,
      "componentType": 5126,
      "count": 1764,
      "type": "VEC3"
    },
    {
      "bufferView": 57,
      "componentType": 5126,
      "count": 1764,
      "type": "VEC2"
    },
    {
      "bufferView": 58,
      "componentType": 5123,
      "count": 2496,
      "type": "SCALAR"
    },
    {
      "bufferView": 59,
      "componentType": 5126,
      "count": 1757,
      "max": [
        0.8752109408378601,
        0.6358864307403564,
        0.6420259475708008
      ],
      "min": [
        -0.8752091526985168,
        -0.6315327286720276,
        -0.6419405937194824
      ],
      "type": "VEC3"
    },
    {
      "bufferView": 60,
      "componentType": 5126,
      "count": 1757,
      "type": "VEC3"
    },
    {
      "bufferView": 61,
      "componentType": 5126,
      "count": 1757,
      "type": "VEC2"
    },
    {
      "bufferView": 62,
      "componentType": 5123,
      "count": 2496,
      "type": "SCALAR"
    },
    {
      "bufferView": 63,
      "componentType": 5126,
      "count": 29757,
      "max": [
        1.6254730224609375,
        5.230343818664551,
        10.543496131896973
      ],
      "min": [
        -1.6254727840423584,
        0.2636229991912842,
        -10.606038093566895
      ],
      "type": "VEC3"
    },
    {
      "bufferView": 64,
      "componentType": 5126,
      "count": 29757,
      "type": "VEC3"
    },
    {
      "bufferView": 65,
      "componentType": 5126,
      "count": 29757,
      "type": "VEC2"
    },
    {
      "bufferView": 66,
      "componentType": 5123,
      "count": 35262,
      "type": "SCALAR"
    },
    {
      "bufferView": 67,
      "componentType": 5126,
      "count": 1000,
      "max": [
        1.0198053121566772,
        5.021650314331055,
        7.460491180419922
      ],
      "min": [
        -1.0185023546218872,
        4.967052459716797,
        3.720599412918091
      ],
      "type": "VEC3"
    },
    {
      "bufferView": 68,
      "componentType": 5126,
      "count": 1000,
      "type": "VEC3"
    },
    {
      "bufferView": 69,
      "componentType": 5126,
      "count": 1000,
      "type": "VEC2"
    },
    {
      "bufferView": 70,
      "componentType": 5123,
      "count": 1200,
      "type": "SCALAR"
    },
    {
      "bufferView": 71,
      "componentType": 5126,
      "count": 19648,
      "max": [
        1.7437103986740112,
        4.095462799072266,
        10.434797286987305
      ],
      "min": [
        -1.7437119483947754,
        1.4421143531799316,
        -10.497339248657227
      ],
      "type": "VEC3"
    },
    {
      "bufferView": 72,
      "componentType": 5126,
      "count": 19648,
      "type": "VEC3"
    },
    {
      "bufferView": 73,
      "componentType": 5126,
      "count": 19648,
      "type": "VEC2"
    },
    {
      "bufferView": 74,
      "componentType": 5123,
      "count": 25545,
      "type": "SCALAR"
    },
    {
      "bufferView": 75,
      "componentType": 5126,
      "count": 1690,
      "max": [
        0.2748969793319702,
        1.2490932941436768,
        10.785741806030273
      ],
      "min": [
        -0.27489691972732544,
        0.7943487167358398,
        -10.848695755004883
      ],
      "type": "VEC3"
    },
    {
      "bufferView": 76,
      "componentType": 5126,
      "count": 1690,
      "type": "VEC3"
    },
    {
      "bufferView": 77,
      "componentType": 5126,
      "count": 1690,
      "type": "VEC2"
    },
    {
      "bufferView": 78,
      "componentType": 5123,
      "count": 1962,
      "type": "SCALAR"
    },
    {
      "bufferView": 79,
      "componentType": 5126,
      "count": 63,
      "max": [
        0.04316353797912598,
        5.2708420753479,
        -0.4235149025917053
      ],
      "min": [
        -0.02011031098663807,
        4.806281089782715,
        -8.19186782836914
      ],
      "type": "VEC3"
    },
    {
      "bufferView": 80,
      "componentType": 5126,
      "count": 63,
      "type": "VEC3"
    },
    {
      "bufferView": 81,
      "componentType": 5126,
      "count": 63,
      "type": "VEC2"
    },
    {
      "bufferView": 82,
      "componentType": 5123,
      "count": 72,
      "type": "SCALAR"
    },
    {
      "bufferView": 83,
      "componentType": 5126,
      "count": 2908,
      "max": [
        1.5682423114776611,
        4.9777984619140625,
        10.152347564697266
      ],
      "min": [
        -1.5682429075241089,
        4.058241844177246,
        -10.214889526367188
      ],
      "type": "VEC3"
    },
    {
      "bufferView": 84,
      "componentType": 5126,
      "count": 2908,
      "type": "VEC3"
    },
    {
      "bufferView": 85,
      "componentType": 5126,
      "count": 2908,
      "type": "VEC2"
    },
    {
      "bufferView": 86,
      "componentType": 5123,
      "count": 3606,
      "type": "SCALAR"
    },
    {
      "bufferView": 87,
      "componentType": 5126,
      "count": 8,
      "max": [
        0.22149944305419922,
        0.06110190972685814,
        0.0005078613758087158
      ],
      "min": [
        -0.2214924693107605,
        -0.06110167130827904,
        -0.0005117654800415039
      ],
      "type": "VEC3"
    },
    {
      "bufferView": 88,
      "componentType": 5126,
      "count": 8,
      "type": "VEC3"
    },
    {
      "bufferView": 89,
      "componentType": 5126,
      "count": 8,
      "type": "VEC2"
    },
    {
      "bufferView": 90,
      "componentType": 5123,
      "count": 12,
      "type": "SCALAR"
    },
    {
      "bufferView": 91,
      "componentType": 5126,
      "count": 48,
      "max": [
        1.0545456409454346,
        1.8825204372406006,
        -10.506929397583008
      ],
      "min": [
        0.8245456218719482,
        1.6525204181671143,
        -10.533102035522461
      ],
      "type": "VEC3"
    },
    {
      "bufferView": 92,
      "componentType": 5126,
      "count": 48,
      "type": "VEC3"
    },
    {
      "bufferView": 93,
      "componentType": 5126,
      "count": 48,
      "type": "VEC2"
    },
    {
      "bufferView": 94,
      "componentType": 5123,
      "count": 48,
      "type": "SCALAR"
    },
    {
      "bufferView": 95,
      "componentType": 5126,
      "count": 48,
      "max": [
        0.9919948577880859,
        1.5903141498565674,
        -10.493367195129395
      ],
      "min": [
        0.8733396530151367,
        1.4807463884353638,
        -10.506701469421387
      ],
      "type": "VEC3"
    },
    {
      "bufferView": 96,
      "componentType": 5126,
      "count": 48,
      "type": "VEC3"
    },
    {
      "bufferView": 97,
      "componentType": 5126,
      "count": 48,
      "type": "VEC2"
    },
    {
      "bufferView": 98,
      "componentType": 5126,
      "count": 48,
      "max": [
        -0.8070980906486511,
        1.882520318031311,
        -10.506929397583008
      ],
      "min": [
        -1.0370980501174927,
        1.6525202989578247,
        -10.533102035522461
      ],
      "type": "VEC3"
    },
    {
      "bufferView": 99,
      "componentType": 5126,
      "count": 48,
      "type": "VEC3"
    },
    {
      "bufferView": 100,
      "componentType": 5126,
      "count": 48,
      "type": "VEC2"
    },
    {
      "bufferView": 101,
      "componentType": 5123,
      "count": 48,
      "type": "SCALAR"
    },
    {
      "bufferView": 102,
      "componentType": 5126,
      "count": 48,
      "max": [
        -0.8668681383132935,
        1.5871400833129883,
        -10.493367195129395
      ],
      "min": [
        -0.9855233430862427,
        1.4775722026824951,
        -10.506701469421387
      ],
      "type": "VEC3"
    },
    {
      "bufferView": 103,
      "componentType": 5126,
      "count": 48,
      "type": "VEC3"
    },
    {
      "bufferView": 104,
      "componentType": 5126,
      "count": 48,
      "type": "VEC2"
    },
    {
      "bufferView": 105,
      "componentType": 5126,
      "count": 48,
      "max": [
        -0.8233355283737183,
        1.882520318031311,
        10.470560073852539
      ],
      "min": [
        -1.053335428237915,
        1.6525202989578247,
        10.444387435913086
      ],
      "type": "VEC3"
    },
    {
      "bufferView": 106,
      "componentType": 5126,
      "count": 48,
      "type": "VEC3"
    },
    {
      "bufferView": 107,
      "componentType": 5126,
      "count": 48,
      "type": "VEC2"
    },
    {
      "bufferView": 108,
      "componentType": 5123,
      "count": 48,
      "type": "SCALAR"
    },
    {
      "bufferView": 109,
      "componentType": 5126,
      "count": 48,
      "max": [
        -0.8711361289024353,
        1.5871400833129883,
        10.444159507751465
      ],
      "min": [
        -0.9897913336753845,
        1.4775722026824951,
        10.430825233459473
      ],
      "type": "VEC3"
    },
    {
      "bufferView": 110,
      "componentType": 5126,
      "count": 48,
      "type": "VEC3"
    },
    {
      "bufferView": 111,
      "componentType": 5126,
      "count": 48,
      "type": "VEC2"
    },
    {
      "bufferView": 112,
      "componentType": 5123,
      "count": 48,
      "type": "SCALAR"
    },
    {
      "bufferView": 113,
      "componentType": 5126,
      "count": 48,
      "max": [
        1.0396370887756348,
        1.8825204372406006,
        10.470560073852539
      ],
      "min": [
        0.8096370697021484,
        1.6525204181671143,
        10.444387435913086
      ],
      "type": "VEC3"
    },
    {
      "bufferView": 114,
      "componentType": 5126,
      "count": 48,
      "type": "VEC3"
    },
    {
      "bufferView": 115,
      "componentType": 5126,
      "count": 48,
      "type": "VEC2"
    },
    {
      "bufferView": 116,
      "componentType": 5123,
      "count": 48,
      "type": "SCALAR"
    },
    {
      "bufferView": 117,
      "componentType": 5126,
      "count": 48,
      "max": [
        0.9893250465393066,
        1.5871400833129883,
        10.444159507751465
      ],
      "min": [
        0.8706698417663574,
        1.4775723218917847,
        10.430825233459473
      ],
      "type": "VEC3"
    },
    {
      "bufferView": 118,
      "componentType": 5126,
      "count": 48,
      "type": "VEC3"
    },
    {
      "bufferView": 119,
      "componentType": 5126,
      "count": 48,
      "type": "VEC2"
    },
    {
      "bufferView": 120,
      "componentType": 5126,
      "count": 226,
      "max": [
        1.560172200202942,
        3.935950994491577,
        -8.80101203918457
      ],
      "min": [
        -1.5601783990859985,
        3.073188066482544,
        -10.467933654785156
      ],
      "type": "VEC3"
    },
    {
      "bufferView": 121,
      "componentType": 5126,
      "count": 226,
      "type": "VEC3"
    },
    {
      "bufferView": 122,
      "componentType": 5126,
      "count": 226,
      "type": "VEC2"
    },
    {
      "bufferView": 123,
      "componentType": 5123,
      "count": 393,
      "type": "SCALAR"
    },
    {
      "bufferView": 124,
      "componentType": 5126,
      "count": 253,
      "max": [
        1.5599868297576904,
        3.9314286708831787,
        10.411277770996094
      ],
      "min": [
        -1.5599803924560547,
        3.0799684524536133,
        8.817462921142578
      ],
      "type": "VEC3"
    },
    {
      "bufferView": 125,
      "componentType": 5126,
      "count": 253,
      "type": "VEC3"
    },
    {
      "bufferView": 126,
      "componentType": 5126,
      "count": 253,
      "type": "VEC2"
    },
    {
      "bufferView": 127,
      "componentType": 5123,
      "count": 384,
      "type": "SCALAR"
    },
    {
      "bufferView": 128,
      "componentType": 5126,
      "count": 12,
      "max": [
        -1.5607281923294067,
        3.1466429233551025,
        0.5590884685516357
      ],
      "min": [
        -1.5607287883758545,
        2.703834295272827,
        -0.8162590265274048
      ],
      "type": "VEC3"
    },
    {
      "bufferView": 129,
      "componentType": 5126,
      "count": 12,
      "type": "VEC3"
    },
    {
      "bufferView": 130,
      "componentType": 5126,
      "count": 12,
      "type": "VEC2"
    },
    {
      "bufferView": 131,
      "componentType": 5123,
      "count": 15,
      "type": "SCALAR"
    },
    {
      "bufferView": 132,
      "componentType": 5126,
      "count": 19,
      "max": [
        0.22321295738220215,
        2.9151265621185303,
        10.401426315307617
      ],
      "min": [
        -0.22866855561733246,
        2.500406265258789,
        10.344135284423828
      ],
      "type": "VEC3"
    },
    {
      "bufferView": 133,
      "componentType": 5126,
      "count": 19,
      "type": "VEC3"
    },
    {
      "bufferView": 134,
      "componentType": 5126,
      "count": 19,
      "type": "VEC2"
    },
    {
      "bufferView": 135,
      "componentType": 5123,
      "count": 39,
      "type": "SCALAR"
    },
    {
      "bufferView": 136,
      "componentType": 5126,
      "count": 32,
      "max": [
        0.23266473412513733,
        2.92413330078125,
        -10.407136917114258
      ],
      "min": [
        -0.2255551666021347,
        2.5074570178985596,
        -10.464956283569336
      ],
      "type": "VEC3"
    },
    {
      "bufferView": 137,
      "componentType": 5126,
      "count": 32,
      "type": "VEC3"
    },
    {
      "bufferView": 138,
      "componentType": 5126,
      "count": 32,
      "type": "VEC2"
    },
    {
      "bufferView": 139,
      "componentType": 5123,
      "count": 45,
      "type": "SCALAR"
    }
  ],
  "asset": {
    "generator": "Khronos glTF Blender I/O v4.4.56",
    "version": "2.0"
  },
  "bufferViews": [
    {
      "buffer": 0,
      "byteLength": 48,
      "byteOffset": 0,
      "target": 34962
    },
    {
      "buffer": 0,
      "byteLength": 48,
      "byteOffset": 48,
      "target": 34962
    },
    {
      "buffer": 0,
      "byteLength": 32,
      "byteOffset": 96,
      "target": 34962
    },
    {
      "buffer": 0,
      "byteLength": 12,
      "byteOffset": 128,
      "target": 34963
    },
    {
      "buffer": 0,
      "byteLength": 48,
      "byteOffset": 140,
      "target": 34962
    },
    {
      "buffer": 0,
      "byteLength": 48,
      "byteOffset": 188,
      "target": 34962
    },
    {
      "buffer": 0,
      "byteLength": 32,
      "byteOffset": 236,
      "target": 34962
    },
    {
      "buffer": 0,
      "byteLength": 48,
      "byteOffset": 268,
      "target": 34962
    },
    {
      "buffer": 0,
      "byteLength": 48,
      "byteOffset": 316,
      "target": 34962
    },
    {
      "buffer": 0,
      "byteLength": 32,
      "byteOffset": 364,
      "target": 34962
    },
    {
      "buffer": 0,
      "byteLength": 48,
      "byteOffset": 396,
      "target": 34962
    },
    {
      "buffer": 0,
      "byteLength": 48,
      "byteOffset": 444,
      "target": 34962
    },
    {
      "buffer": 0,
      "byteLength": 32,
      "byteOffset": 492,
      "target": 34962
    },
    {
      "buffer": 0,
      "byteLength": 48,
      "byteOffset": 524,
      "target": 34962
    },
    {
      "buffer": 0,
      "byteLength": 48,
      "byteOffset": 572,
      "target": 34962
    },
    {
      "buffer": 0,
      "byteLength": 32,
      "byteOffset": 620,
      "target": 34962
    },
    {
      "buffer": 0,
      "byteLength": 48,
      "byteOffset": 652,
      "target": 34962
    },
    {
      "buffer": 0,
      "byteLength": 48,
      "byteOffset": 700,
      "target": 34962
    },
    {
      "buffer": 0,
      "byteLength": 32,
      "byteOffset": 748,
      "target": 34962
    },
    {
      "buffer": 0,
      "byteLength": 48,
      "byteOffset": 780,
      "target": 34962
    },
    {
      "buffer": 0,
      "byteLength": 48,
      "byteOffset": 828,
      "target": 34962
    },
    {
      "buffer": 0,
      "byteLength": 32,
      "byteOffset": 876,
      "target": 34962
    },
    {
      "buffer": 0,
      "byteLength": 48,
      "byteOffset": 908,
      "target": 34962
    },
    {
      "buffer": 0,
      "byteLength": 48,
      "byteOffset": 956,
      "target": 34962
    },
    {
      "buffer": 0,
      "byteLength": 32,
      "byteOffset": 1004,
      "target": 34962
    },
    {
      "buffer": 0,
      "byteLength": 48,
      "byteOffset": 1036,
      "target": 34962
    },
    {
      "buffer": 0,
      "byteLength": 48,
      "byteOffset": 1084,
      "target": 34962
    },
    {
      "buffer": 0,
      "byteLength": 32,
      "byteOffset": 1132,
      "target": 34962
    },
    {
      "buffer": 0,
      "byteLength": 48,
      "byteOffset": 1164,
      "target": 34962
    },
    {
      "buffer": 0,
      "byteLength": 48,
      "byteOffset": 1212,
      "target": 34962
    },
    {
      "buffer": 0,
      "byteLength": 32,
      "byteOffset": 1260,
      "target": 34962
    },
    {
      "buffer": 0,
      "byteLength": 672096,
      "byteOffset": 1292,
      "target": 34962
    },
    {
      "buffer": 0,
      "byteLength": 672096,
      "byteOffset": 673388,
      "target": 34962
    },
    {
      "buffer": 0,
      "byteLength": 448064,
      "byteOffset": 1345484,
      "target": 34962
    },
    {
      "buffer": 0,
      "byteLength": 133596,
      "byteOffset": 1793548,
      "target": 34963
    },
    {
      "buffer": 0,
      "byteLength": 21084,
      "byteOffset": 1927144,
      "target": 34962
    },
    {
      "buffer": 0,
      "byteLength": 21084,
      "byteOffset": 1948228,
      "target": 34962
    },
    {
      "buffer": 0,
      "byteLength": 14056,
      "byteOffset": 1969312,
      "target": 34962
    },
    {
      "buffer": 0,
      "byteLength": 4992,
      "byteOffset": 1983368,
      "target": 34963
    },
    {
      "buffer": 0,
      "byteLength": 21120,
      "byteOffset": 1988360,
      "target": 34962
    },
    {
      "buffer": 0,
      "byteLength": 21120,
      "byteOffset": 2009480,
      "target": 34962
    },
    {
      "buffer": 0,
      "byteLength": 14080,
      "byteOffset": 2030600,
      "target": 34962
    },
    {
      "buffer": 0,
      "byteLength": 4992,
      "byteOffset": 2044680,
      "target": 34963
    },
    {
      "buffer": 0,
      "byteLength": 21144,
      "byteOffset": 2049672,
      "target": 34962
    },
    {
      "buffer": 0,
      "byteLength": 21144,
      "byteOffset": 2070816,
      "target": 34962
    },
    {
      "buffer": 0,
      "byteLength": 14096,
      "byteOffset": 2091960,
      "target": 34962
    },
    {
      "buffer": 0,
      "byteLength": 4992,
      "byteOffset": 2106056,
      "target": 34963
    },
    {
      "buffer": 0,
      "byteLength": 672288,
      "byteOffset": 2111048,
      "target": 34962
    },
    {
      "buffer": 0,
      "byteLength": 672288,
      "byteOffset": 2783336,
      "target": 34962
    },
    {
      "buffer": 0,
      "byteLength": 448192,
      "byteOffset": 3455624,
      "target": 34962
    },
    {
      "buffer": 0,
      "byteLength": 133596,
      "byteOffset": 3903816,
      "target": 34963
    },
    {
      "buffer": 0,
      "byteLength": 21144,
      "byteOffset": 4037412,
      "target": 34962
    },
    {
      "buffer": 0,
      "byteLength": 21144,
      "byteOffset": 4058556,
      "target": 34962
    },
    {
      "buffer": 0,
      "byteLength": 14096,
      "byteOffset": 4079700,
      "target": 34962
    },
    {
      "buffer": 0,
      "byteLength": 4992,
      "byteOffset": 4093796,
      "target": 34963
    },
    {
      "buffer": 0,
      "byteLength": 21168,
      "byteOffset": 4098788,
      "target": 34962
    },
    {
      "buffer": 0,
      "byteLength": 21168,
      "byteOffset": 4119956,
      "target": 34962
    },
    {
      "buffer": 0,
      "byteLength": 14112,
      "byteOffset": 4141124,
      "target": 34962
    },
    {
      "buffer": 0,
      "byteLength": 4992,
      "byteOffset": 4155236,
      "target": 34963
    },
    {
      "buffer": 0,
      "byteLength": 21084,
      "byteOffset": 4160228,
      "target": 34962
    },
    {
      "buffer": 0,
      "byteLength": 21084,
      "byteOffset": 4181312,
      "target": 34962
    },
    {
      "buffer": 0,
      "byteLength": 14056,
      "byteOffset": 4202396,
      "target": 34962
    },
    {
      "buffer": 0,
      "byteLength": 4992,
      "byteOffset": 4216452,
      "target": 34963
    },
    {
      "buffer": 0,
      "byteLength": 357084,
      "byteOffset": 4221444,
      "target": 34962
    },
    {
      "buffer": 0,
      "byteLength": 357084,
      "byteOffset": 4578528,
      "target": 34962
    },
    {
      "buffer": 0,
      "byteLength": 238056,
      "byteOffset": 4935612,
      "target": 34962
    },
    {
      "buffer": 0,
      "byteLength": 70524,
      "byteOffset": 5173668,
      "target": 34963
    },
    {
      "buffer": 0,
      "byteLength": 12000,
      "byteOffset": 5244192,
      "target": 34962
    },
    {
      "buffer": 0,
      "byteLength": 12000,
      "byteOffset": 5256192,
      "target": 34962
    },
    {
      "buffer": 0,
      "byteLength": 8000,
      "byteOffset": 5268192,
      "target": 34962
    },
    {
      "buffer": 0,
      "byteLength": 2400,
      "byteOffset": 5276192,
      "target": 34963
    },
    {
      "buffer": 0,
      "byteLength": 235776,
      "byteOffset": 5278592,
      "target": 34962
    },
    {
      "buffer": 0,
      "byteLength": 235776,
      "byteOffset": 5514368,
      "target": 34962
    },
    {
      "buffer": 0,
      "byteLength": 157184,
      "byteOffset": 5750144,
      "target": 34962
    },
    {
      "buffer": 0,
      "byteLength": 51090,
      "byteOffset": 5907328,
      "target": 34963
    },
    {
      "buffer": 0,
      "byteLength": 20280,
      "byteOffset": 5958420,
      "target": 34962
    },
    {
      "buffer": 0,
      "byteLength": 20280,
      "byteOffset": 5978700,
      "target": 34962
    },
    {
      "buffer": 0,
      "byteLength": 13520,
      "byteOffset": 5998980,
      "target": 34962
    },
    {
      "buffer": 0,
      "byteLength": 3924,
      "byteOffset": 6012500,
      "target": 34963
    },
    {
      "buffer": 0,
      "byteLength": 756,
      "byteOffset": 6016424,
      "target": 34962
    },
    {
      "buffer": 0,
      "byteLength": 756,
      "byteOffset": 6017180,
      "target": 34962
    },
    {
      "buffer": 0,
      "byteLength": 504,
      "byteOffset": 6017936,
      "target": 34962
    },
    {
      "buffer": 0,
      "byteLength": 144,
      "byteOffset": 6018440,
      "target": 34963
    },
    {
      "buffer": 0,
      "byteLength": 34896,
      "byteOffset": 6018584,
      "target": 34962
    },
    {
      "buffer": 0,
      "byteLength": 34896,
      "byteOffset": 6053480,
      "target": 34962
    },
    {
      "buffer": 0,
      "byteLength": 23264,
      "byteOffset": 6088376,
      "target": 34962
    },
    {
      "buffer": 0,
      "byteLength": 7212,
      "byteOffset": 6111640,
      "target": 34963
    },
    {
      "buffer": 0,
      "byteLength": 96,
      "byteOffset": 6118852,
      "target": 34962
    },
    {
      "buffer": 0,
      "byteLength": 96,
      "byteOffset": 6118948,
      "target": 34962
    },
    {
      "buffer": 0,
      "byteLength": 64,
      "byteOffset": 6119044,
      "target": 34962
    },
    {
      "buffer": 0,
      "byteLength": 24,
      "byteOffset": 6119108,
      "target": 34963
    },
    {
      "buffer": 0,
      "byteLength": 576,
      "byteOffset": 6119132,
      "target": 34962
    },
    {
      "buffer": 0,
      "byteLength": 576,
      "byteOffset": 6119708,
      "target": 34962
    },
    {
      "buffer": 0,
      "byteLength": 384,
      "byteOffset": 6120284,
      "target": 34962
    },
    {
      "buffer": 0,
      "byteLength": 96,
      "byteOffset": 6120668,
      "target": 34963
    },
    {
      "buffer": 0,
      "byteLength": 576,
      "byteOffset": 6120764,
      "target": 34962
    },
    {
      "buffer": 0,
      "byteLength": 576,
      "byteOffset": 6121340,
      "target": 34962
    },
    {
      "buffer": 0,
      "byteLength": 384,
      "byteOffset": 6121916,
      "target": 34962
    },
    {
      "buffer": 0,
      "byteLength": 576,
      "byteOffset": 6122300,
      "target": 34962
    },
    {
      "buffer": 0,
      "byteLength": 576,
      "byteOffset": 6122876,
      "target": 34962
    },
    {
      "buffer": 0,
      "byteLength": 384,
      "byteOffset": 6123452,
      "target": 34962
    },
    {
      "buffer": 0,
      "byteLength": 96,
      "byteOffset": 6123836,
      "target": 34963
    },
    {
      "buffer": 0,
      "byteLength": 576,
      "byteOffset": 6123932,
      "target": 34962
    },
    {
      "buffer": 0,
      "byteLength": 576,
      "byteOffset": 6124508,
      "target": 34962
    },
    {
      "buffer": 0,
      "byteLength": 384,
      "byteOffset": 6125084,
      "target": 34962
    },
    {
      "buffer": 0,
      "byteLength": 576,
      "byteOffset": 6125468,
      "target": 34962
    },
    {
      "buffer": 0,
      "byteLength": 576,
      "byteOffset": 6126044,
      "target": 34962
    },
    {
      "buffer": 0,
      "byteLength": 384,
      "byteOffset": 6126620,
      "target": 34962
    },
    {
      "buffer": 0,
      "byteLength": 96,
      "byteOffset": 6127004,
      "target": 34963
    },
    {
      "buffer": 0,
      "byteLength": 576,
      "byteOffset": 6127100,
      "target": 34962
    },
    {
      "buffer": 0,
      "byteLength": 576,
      "byteOffset": 6127676,
      "target": 34962
    },
    {
      "buffer": 0,
      "byteLength": 384,
      "byteOffset": 6128252,
      "target": 34962
    },
    {
      "buffer": 0,
      "byteLength": 96,
      "byteOffset": 6128636,
      "target": 34963
    },
    {
      "buffer": 0,
      "byteLength": 576,
      "byteOffset": 6128732,
      "target": 34962
    },
    {
      "buffer": 0,
      "byteLength": 576,
      "byteOffset": 6129308,
      "target": 34962
    },
    {
      "buffer": 0,
      "byteLength": 384,
      "byteOffset": 6129884,
      "target": 34962
    },
    {
      "buffer": 0,
      "byteLength": 96,
      "byteOffset": 6130268,
      "target": 34963
    },
    {
      "buffer": 0,
      "byteLength": 576,
      "byteOffset": 6130364,
      "target": 34962
    },
    {
      "buffer": 0,
      "byteLength": 576,
      "byteOffset": 6130940,
      "target": 34962
    },
    {
      "buffer": 0,
      "byteLength": 384,
      "byteOffset": 6131516,
      "target": 34962
    },
    {
      "buffer": 0,
      "byteLength": 2712,
      "byteOffset": 6131900,
      "target": 34962
    },
    {
      "buffer": 0,
      "byteLength": 2712,
      "byteOffset": 6134612,
      "target": 34962
    },
    {
      "buffer": 0,
      "byteLength": 1808,
      "byteOffset": 6137324,
      "target": 34962
    },
    {
      "buffer": 0,
      "byteLength": 786,
      "byteOffset": 6139132,
      "target": 34963
    },
    {
      "buffer": 0,
      "byteLength": 3036,
      "byteOffset": 6139920,
      "target": 34962
    },
    {
      "buffer": 0,
      "byteLength": 3036,
      "byteOffset": 6142956,
      "target": 34962
    },
    {
      "buffer": 0,
      "byteLength": 2024,
      "byteOffset": 6145992,
      "target": 34962
    },
    {
      "buffer": 0,
      "byteLength": 768,
      "byteOffset": 6148016,
      "target": 34963
    },
    {
      "buffer": 0,
      "byteLength": 144,
      "byteOffset": 6148784,
      "target": 34962
    },
    {
      "buffer": 0,
      "byteLength": 144,
      "byteOffset": 6148928,
      "target": 34962
    },
    {
      "buffer": 0,
      "byteLength": 96,
      "byteOffset": 6149072,
      "target": 34962
    },
    {
      "buffer": 0,
      "byteLength": 30,
      "byteOffset": 6149168,
      "target": 34963
    },
    {
      "buffer": 0,
      "byteLength": 228,
      "byteOffset": 6149200,
      "target": 34962
    },
    {
      "buffer": 0,
      "byteLength": 228,
      "byteOffset": 6149428,
      "target": 34962
    },
    {
      "buffer": 0,
      "byteLength": 152,
      "byteOffset": 6149656,
      "target": 34962
    },
    {
      "buffer": 0,
      "byteLength": 78,
      "byteOffset": 6149808,
      "target": 34963
    },
    {
      "buffer": 0,
      "byteLength": 384,
      "byteOffset": 6149888,
      "target": 34962
    },
    {
      "buffer": 0,
      "byteLength": 384,
      "byteOffset": 6150272,
      "target": 34962
    },
    {
      "buffer": 0,
      "byteLength": 256,
      "byteOffset": 6150656,
      "target": 34962
    },
    {
      "buffer": 0,
      "byteLength": 90,
      "byteOffset": 6150912,
      "target": 34963
    }
  ],
  "buffers": [
    {
      "byteLength": 6151004,
      "uri": "tep70.bin"
    }
  ],
  "extensions": {
    "KHR_lights_punctual": {
      "lights": [
        {
          "color": [
            1,
            1,
            1
          ],
          "intensity": 978.3254351858807,
          "name": "SpotLight_low2",
          "range": 200,
          "spot": {
            "innerConeAngle": 0,
            "outerConeAngle": 1.0471975803375244
          },
          "type": "spot"
        },
        {
          "color": [
            1,
            1,
            1
          ],
          "intensity": 978.3254351858807,
          "name": "SpotLight_low1",
          "range": 200,
          "spot": {
            "innerConeAngle": 0,
            "outerConeAngle": 1.0471975803375244
          },
          "type": "spot"
        },
        {
          "color": [
            1,
            1,
            1
          ],
          "intensity": 97832.54351858806,
          "name": "SpotLight_high2",
          "range": 200,
          "spot": {
            "innerConeAngle": 0,
            "outerConeAngle": 0.05235987901687622
          },
          "type": "spot"
        },
        {
          "color": [
            1,
            1,
            1
          ],
          "intensity": 97832.54351858806,
          "name": "SpotLight_high1",
          "range": 200,
          "spot": {
            "innerConeAngle": 0,
            "outerConeAngle": 0.05235987901687622
          },
          "type": "spot"
        },
        {
          "color": [
            1,
            1,
            1
          ],
          "intensity": 978.3254351858807,
          "name": "BufLight_white_2R",
          "range": 200,
          "spot": {
            "innerConeAngle": 0,
            "outerConeAngle": 1.0471975803375244
          },
          "type": "spot"
        },
        {
          "color": [
            1,
            1,
            1
          ],
          "intensity": 978.3254351858807,
          "name": "BufLight_white_2L",
          "range": 200,
          "spot": {
            "innerConeAngle": 0,
            "outerConeAngle": 1.0471975803375244
          },
          "type": "spot"
        },
        {
          "color": [
            1,
            1,
            1
          ],
          "intensity": 978.3254351858807,
          "name": "BufLight_white_1R",
          "range": 200,
          "spot": {
            "innerConeAngle": 0,
            "outerConeAngle": 1.0471975803375244
          },
          "type": "spot"
        },
        {
          "color": [
            1,
            1,
            1
          ],
          "intensity": 978.3254351858807,
          "name": "BufLight_white_1L",
          "range": 200,
          "spot": {
            "innerConeAngle": 0,
            "outerConeAngle": 1.0471975803375244
          },
          "type": "spot"
        },
        {
          "color": [
            1,
            0,
            0
          ],
          "intensity": 978.3254351858807,
          "name": "BufLight_red_2R",
          "range": 200,
          "spot": {
            "innerConeAngle": 0,
            "outerConeAngle": 1.0471975803375244
          },
          "type": "spot"
        },
        {
          "color": [
            1,
            0,
            0
          ],
          "intensity": 978.3254351858807,
          "name": "BufLight_red_2L",
          "range": 200,
          "spot": {
            "innerConeAngle": 0,
            "outerConeAngle": 1.0471975803375244
          },
          "type": "spot"
        },
        {
          "color": [
            1,
            0,
            0
          ],
          "intensity": 978.3254351858807,
          "name": "BufLight_red_1R",
          "range": 200,
          "spot": {
            "innerConeAngle": 0,
            "outerConeAngle": 1.0471975803375244
          },
          "type": "spot"
        },
        {
          "color": [
            1,
            0,
            0
          ],
          "intensity": 978.3254351858807,
          "name": "BufLight_red_1L",
          "range": 200,
          "spot": {
            "innerConeAngle": 0,
            "outerConeAngle": 1.0471975803375244
          },
          "type": "spot"
        }
      ]
    }
  },
  "extensionsRequired": [
    "KHR_lights_punctual"
  ],
  "extensionsUsed": [
    "KHR_lights_punctual"
  ],
  "images": [
    {
      "name": "krysha",
      "uri": "textures\\krysha.ktx2"
    },
    {
      "name": "telega_r",
      "uri": "textures\\telega_r.ktx2"
    },
    {
      "name": "kp",
      "uri": "textures\\kp.ktx2"
    },
    {
      "name": "detali_emis",
      "uri": "textures\\detali_emis.ktx2"
    },
    {
      "name": "detali",
      "uri": "textures\\detali.ktx2"
    },
    {
      "name": "kzov",
      "uri": "textures\\kzov.ktx2"
    },
    {
      "name": "sa-3",
      "uri": "textures\\sa-3.ktx2"
    },
    {
      "name": "Display_number",
      "uri": "textures\\Display_number.ktx2"
    },
    {
      "name": "steklo_kab",
      "uri": "textures\\steklo_kab.ktx2"
    },
    {
      "name": "kzov_emis",
      "uri": "textures\\kzov_emis.ktx2"
    }
  ],
  "materials": [
    {
      "doubleSided": true,
      "name": "Material_krysha",
      "pbrMetallicRoughness": {
        "baseColorTexture": {
          "index": 0
        },
        "metallicFactor": 0,
        "roughnessFactor": 0.5
      }
    },
    {
      "doubleSided": true,
      "name": "Material_telega_r",
      "pbrMetallicRoughness": {
        "baseColorTexture": {
          "index": 1
        },
        "metallicFactor": 0,
        "roughnessFactor": 0.5
      }
    },
    {
      "doubleSided": true,
      "name": "Material_kp",
      "pbrMetallicRoughness": {
        "baseColorTexture": {
          "index": 2
        },
        "metallicFactor": 0,
        "roughnessFactor": 0.5
      }
    },
    {
      "doubleSided": true,
      "emissiveTexture": {
        "index": 3
      },
      "name": "Material_detali",
      "pbrMetallicRoughness": {
        "baseColorTexture": {
          "index": 4
        },
        "metallicFactor": 0,
        "roughnessFactor": 0.5
      }
    },
    {
      "doubleSided": true,
      "name": "Material_kzov",
      "pbrMetallicRoughness": {
        "baseColorTexture": {
          "index": 5
        },
        "metallicFactor": 0,
        "roughnessFactor": 0.5
      }
    },
    {
      "alphaMode": "BLEND",
      "doubleSided": true,
      "name": "Material_sa3",
      "pbrMetallicRoughness": {
        "baseColorTexture": {
          "index": 6
        },
        "metallicFactor": 0,
        "roughnessFactor": 0.5
      }
    },
    {
      "doubleSided": true,
      "emissiveTexture": {
        "index": 7
      },
      "name": "Material_number_display",
      "pbrMetallicRoughness": {
        "baseColorTexture": {
          "index": 8
        },
        "metallicFactor": 0,
        "roughnessFactor": 0.5
      }
    },
    {
      "alphaMode": "BLEND",
      "doubleSided": true,
      "name": "Steklo_Cab",
      "pbrMetallicRoughness": {
        "baseColorTexture": {
          "index": 9
        },
        "metallicFactor": 0,
        "roughnessFactor": 0.5
      }
    },
    {
      "doubleSided": true,
      "emissiveTexture": {
        "index": 10
      },
      "name": "Material_kzov_blend",
      "pbrMetallicRoughness": {
        "baseColorTexture": {
          "index": 11
        },
        "metallicFactor": 0,
        "roughnessFactor": 0.5
      }
    }
  ],
  "meshes": [
    {
      "name": "Plane14",
      "primitives": [
        {
          "attributes": {
            "NORMAL": 1,
            "POSITION": 0,
            "TEXCOORD_0": 2
          },
          "indices": 3,
          "material": 0
        }
      ]
    },
    {
      "name": "Plane13",
      "primitives": [
        {
          "attributes": {
            "NORMAL": 5,
            "POSITION": 4,
            "TEXCOORD_0": 6
          },
          "indices": 3,
          "material": 0
        }
      ]
    },
    {
      "name": "Plane12",
      "primitives": [
        {
          "attributes": {
            "NORMAL": 8,
            "POSITION": 7,
            "TEXCOORD_0": 9
          },
          "indices": 3,
          "material": 0
        }
      ]
    },
    {
      "name": "Plane11",
      "primitives": [
        {
          "attributes": {
            "NORMAL": 11,
            "POSITION": 10,
            "TEXCOORD_0": 12
          },
          "indices": 3,
          "material": 0
        }
      ]
    },
    {
      "name": "Plane10",
      "primitives": [
        {
          "attributes": {
            "NORMAL": 14,
            "POSITION": 13,
            "TEXCOORD_0": 15
          },
          "indices": 3,
          "material": 0
        }
      ]
    },
    {
      "name": "Plane09",
      "primitives": [
        {
          "attributes": {
            "NORMAL": 17,
            "POSITION": 16,
            "TEXCOORD_0": 18
          },
          "indices": 3,
          "material": 0
        }
      ]
    },
    {
      "name": "Plane08",
      "primitives": [
        {
          "attributes": {
            "NORMAL": 20,
            "POSITION": 19,
            "TEXCOORD_0": 21
          },
          "indices": 3,
          "material": 0
        }
      ]
    },
    {
      "name": "Plane07",
      "primitives": [
        {
          "attributes": {
            "NORMAL": 23,
            "POSITION": 22,
            "TEXCOORD_0": 24
          },
          "indices": 3,
          "material": 0
        }
      ]
    },
    {
      "name": "Plane06",
      "primitives": [
        {
          "attributes": {
            "NORMAL": 26,
            "POSITION": 25,
            "TEXCOORD_0": 27
          },
          "indices": 3,
          "material": 0
        }
      ]
    },
    {
      "name": "Plane05",
      "primitives": [
        {
          "attributes": {
            "NORMAL": 29,
            "POSITION": 28,
            "TEXCOORD_0": 30
          },
          "indices": 3,
          "material": 0
        }
      ]
    },
    {
      "name": "Telega",
      "primitives": [
        {
          "attributes": {
            "NORMAL": 32,
            "POSITION": 31,
            "TEXCOORD_0": 33
          },
          "indices": 34,
          "material": 1
        }
      ]
    },
    {
      "name": "wheel3",
      "primitives": [
        {
          "attributes": {
            "NORMAL": 36,
            "POSITION": 35,
            "TEXCOORD_0": 37
          },
          "indices": 38,
          "material": 2
        }
      ]
    },
    {
      "name": "wheel2",
      "primitives": [
        {
          "attributes": {
            "NORMAL": 40,
            "POSITION": 39,
            "TEXCOORD_0": 41
          },
          "indices": 42,
          "material": 2
        }
      ]
    },
    {
      "name": "wheel1",
      "primitives": [
        {
          "attributes": {
            "NORMAL": 44,
            "POSITION": 43,
            "TEXCOORD_0": 45
          },
          "indices": 46,
          "material": 2
        }
      ]
    },
    {
      "name": "Telega01",
      "primitives": [
        {
          "attributes": {
            "NORMAL": 48,
            "POSITION": 47,
            "TEXCOORD_0": 49
          },
          "indices": 50,
          "material": 1
        }
      ]
    },
    {
      "name": "wheel06",
      "primitives": [
        {
          "attributes": {
            "NORMAL": 52,
            "POSITION": 51,
            "TEXCOORD_0": 53
          },
          "indices": 54,
          "material": 2
        }
      ]
    },
    {
      "name": "wheel05",
      "primitives": [
        {
          "attributes": {
            "NORMAL": 56,
            "POSITION": 55,
            "TEXCOORD_0": 57
          },
          "indices": 58,
          "material": 2
        }
      ]
    },
    {
      "name": "wheel04",
      "primitives": [
        {
          "attributes": {
            "NORMAL": 60,
            "POSITION": 59,
            "TEXCOORD_0": 61
          },
          "indices": 62,
          "material": 2
        }
      ]
    },
    {
      "name": "Detali",
      "primitives": [
        {
          "attributes": {
            "NORMAL": 64,
            "POSITION": 63,
            "TEXCOORD_0": 65
          },
          "indices": 66,
          "material": 3
        }
      ]
    },
    {
      "name": "Reshetka n",
      "primitives": [
        {
          "attributes": {
            "NORMAL": 68,
            "POSITION": 67,
            "TEXCOORD_0": 69
          },
          "indices": 70,
          "material": 0
        }
      ]
    },
    {
      "name": "kuzov",
      "primitives": [
        {
          "attributes": {
            "NORMAL": 72,
            "POSITION": 71,
            "TEXCOORD_0": 73
          },
          "indices": 74,
          "material": 4
        }
      ]
    },
    {
      "name": "sa3",
      "primitives": [
        {
          "attributes": {
            "NORMAL": 76,
            "POSITION": 75,
            "TEXCOORD_0": 77
          },
          "indices": 78,
          "material": 5
        }
      ]
    },
    {
      "name": "Antena",
      "primitives": [
        {
          "attributes": {
            "NORMAL": 80,
            "POSITION": 79,
            "TEXCOORD_0": 81
          },
          "indices": 82,
          "material": 0
        }
      ]
    },
    {
      "name": "Krysha",
      "primitives": [
        {
          "attributes": {
            "NORMAL": 84,
            "POSITION": 83,
            "TEXCOORD_0": 85
          },
          "indices": 86,
          "material": 0
        }
      ]
    },
    {
      "name": "Display_number",
      "primitives": [
        {
          "attributes": {
            "NORMAL": 88,
            "POSITION": 87,
            "TEXCOORD_0": 89
          },
          "indices": 90,
          "material": 6
        }
      ]
    },
    {
      "name": "BufLight_white_1R_emis",
      "primitives": [
        {
          "attributes": {
            "NORMAL": 92,
            "POSITION": 91,
            "TEXCOORD_0": 93
          },
          "indices": 94,
          "material": 3
        }
      ]
    },
    {
      "name": "BufLight_red_1R_emis",
      "primitives": [
        {
          "attributes": {
            "NORMAL": 96,
            "POSITION": 95,
            "TEXCOORD_0": 97
          },
          "indices": 94,
          "material": 3
        }
      ]
    },
    {
      "name": "BufLight_white_1L_emis",
      "primitives": [
        {
          "attributes": {
            "NORMAL": 99,
            "POSITION": 98,
            "TEXCOORD_0": 100
          },
          "indices": 101,
          "material": 3
        }
      ]
    },
    {
      "name": "BufLight_red_1L_emis",
      "primitives": [
        {
          "attributes": {
            "NORMAL": 103,
            "POSITION": 102,
            "TEXCOORD_0": 104
          },
          "indices": 101,
          "material": 3
        }
      ]
    },
    {
      "name": "BufLight_white_2R_emis",
      "primitives": [
        {
          "attributes": {
            "NORMAL": 106,
            "POSITION": 105,
            "TEXCOORD_0": 107
          },
          "indices": 108,
          "material": 3
        }
      ]
    },
    {
      "name": "BufLight_red_2R_emis",
      "primitives": [
        {
          "attributes": {
            "NORMAL": 110,
            "POSITION": 109,
            "TEXCOORD_0": 111
          },
          "indices": 112,
          "material": 3
        }
      ]
    },
    {
      "name": "BufLight_white_2L_emis",
      "primitives": [
        {
          "attributes": {
            "NORMAL": 114,
            "POSITION": 113,
            "TEXCOORD_0": 115
          },
          "indices": 116,
          "material": 3
        }
      ]
    },
    {
      "name": "BufLight_red_2L_emis",
      "primitives": [
        {
          "attributes": {
            "NORMAL": 118,
            "POSITION": 117,
            "TEXCOORD_0": 119
          },
          "indices": 116,
          "material": 3
        }
      ]
    },
    {
      "name": "Stekla.001",
      "primitives": [
        {
          "attributes": {
            "NORMAL": 121,
            "POSITION": 120,
            "TEXCOORD_0": 122
          },
          "indices": 123,
          "material": 7
        }
      ]
    },
    {
      "name": "Stekla.002",
      "primitives": [
        {
          "attributes": {
            "NORMAL": 125,
            "POSITION": 124,
            "TEXCOORD_0": 126
          },
          "indices": 127,
          "material": 7
        }
      ]
    },
    {
      "name": "Stekla.003",
      "primitives": [
        {
          "attributes": {
            "NORMAL": 129,
            "POSITION": 128,
            "TEXCOORD_0": 130
          },
          "indices": 131,
          "material": 8
        }
      ]
    },
    {
      "name": "Spotlight_bwd",
      "primitives": [
        {
          "attributes": {
            "NORMAL": 133,
            "POSITION": 132,
            "TEXCOORD_0": 134
          },
          "indices": 135,
          "material": 8
        }
      ]
    },
    {
      "name": "Spotlight_fwd",
      "primitives": [
        {
          "attributes": {
            "NORMAL": 137,
            "POSITION": 136,
            "TEXCOORD_0": 138
          },
          "indices": 139,
          "material": 8
        }
      ]
    }
  ],
  "nodes": [
    {
      "mesh": 0,
      "name": "Plane14",
      "translation": [
        -0.27902650833129883,
        0,
        -0.9943227767944336
      ]
    },
    {
      "mesh": 1,
      "name": "Plane13",
      "translation": [
        -0.39164412021636963,
        0,
        -0.9943227767944336
      ]
    },
    {
      "mesh": 2,
      "name": "Plane12",
      "translation": [
        -0.5047153830528259,
        0,
        -0.9943227767944336
      ]
    },
    {
      "mesh": 3,
      "name": "Plane11",
      "translation": [
        -0.05356992036104202,
        0,
        -0.9943227767944336
      ]
    },
    {
      "mesh": 4,
      "name": "Plane10",
      "translation": [
        -0.1661021113395691,
        0,
        -0.9943227767944336
      ]
    },
    {
      "mesh": 5,
      "name": "Plane09",
      "translation": [
        0.05904769152402878,
        0,
        -0.9943227767944336
      ]
    },
    {
      "mesh": 6,
      "name": "Plane08",
      "translation": [
        0.1698642373085022,
        0,
        -0.9943227767944336
      ]
    },
    {
      "mesh": 7,
      "name": "Plane07",
      "translation": [
        0.5066943764686584,
        0,
        -0.9943227767944336
      ]
    },
    {
      "mesh": 8,
      "name": "Plane06",
      "translation": [
        0.39407676458358765,
        0,
        -0.9943227767944336
      ]
    },
    {
      "mesh": 9,
      "name": "Plane05",
      "translation": [
        0.28262412548065186,
        0,
        -0.9943227767944336
      ]
    },
    {
      "mesh": 10,
      "name": "Telega"
    },
    {
      "mesh": 11,
      "name": "Wheel-3",
      "translation": [
        0,
        0.6066147089004517,
        -3.9837071895599365
      ]
    },
    {
      "mesh": 12,
      "name": "Wheel-2",
      "translation": [
        0,
        0.6066147089004517,
        -5.958571910858154
      ]
    },
    {
      "mesh": 13,
      "name": "Wheel-1",
      "translation": [
        0,
        0.6066148281097412,
        -8.294025421142578
      ]
    },
    {
      "mesh": 14,
      "name": "Telega01"
    },
    {
      "mesh": 15,
      "name": "Wheel-4",
      "translation": [
        0,
        0.6066146492958069,
        3.927650213241577
      ]
    },
    {
      "mesh": 16,
      "name": "Wheel-5",
      "translation": [
        0,
        0.6066146492958069,
        5.902498722076416
      ]
    },
    {
      "mesh": 17,
      "name": "Wheel-6",
      "translation": [
        0,
        0.6066148281097412,
        8.237944602966309
      ]
    },
    {
      "mesh": 18,
      "name": "Detali"
    },
    {
      "mesh": 19,
      "name": "Reshetka n"
    },
    {
      "mesh": 20,
      "name": "kuzov"
    },
    {
      "mesh": 21,
      "name": "sa3"
    },
    {
      "mesh": 22,
      "name": "Antena"
    },
    {
      "mesh": 23,
      "name": "Krysha"
    },
    {
      "extensions": {
        "KHR_lights_punctual": {
          "light": 0
        }
      },
      "name": "SpotLight_low2",
      "rotation": [
        1,
        0,
        0,
        4.7414219217500886e-09
      ],
      "translation": [
        0,
        2.700000047683716,
        10.4399995803833
      ]
    },
    {
      "extensions": {
        "KHR_lights_punctual": {
          "light": 1
        }
      },
      "name": "SpotLight_low1",
      "translation": [
        0,
        2.700000047683716,
        -10.4399995803833
      ]
    },
    {
      "extensions": {
        "KHR_lights_punctual": {
          "light": 2
        }
      },
      "name": "SpotLight_high2",
      "rotation": [
        1,
        0,
        0,
        4.7414219217500886e-09
      ],
      "translation": [
        0,
        2.700000047683716,
        10.4399995803833
      ]
    },
    {
      "extensions": {
        "KHR_lights_punctual": {
          "light": 3
        }
      },
      "name": "SpotLight_high1",
      "translation": [
        0,
        2.700000047683716,
        -10.4399995803833
      ]
    },
    {
      "extensions": {
        "KHR_lights_punctual": {
          "light": 4
        }
      },
      "name": "BufLight_white_2R",
      "rotation": [
        1,
        0,
        0,
        4.7414219217500886e-09
      ],
      "translation": [
        -0.9383355379104614,
        1.7675203084945679,
        10.470560073852539
      ]
    },
    {
      "extensions": {
        "KHR_lights_punctual": {
          "light": 5
        }
      },
      "name": "BufLight_white_2L",
      "rotation": [
        1,
        0,
        0,
        4.7414219217500886e-09
      ],
      "translation": [
        0.9246373176574707,
        1.7675204277038574,
        10.470560073852539
      ]
    },
    {
      "extensions": {
        "KHR_lights_punctual": {
          "light": 6
        }
      },
      "name": "BufLight_white_1R",
      "translation": [
        0.9395458698272705,
        1.7675204277038574,
        -10.533102035522461
      ]
    },
    {
      "extensions": {
        "KHR_lights_punctual": {
          "light": 7
        }
      },
      "name": "BufLight_white_1L",
      "translation": [
        -0.9220981001853943,
        1.7675203084945679,
        -10.533102035522461
      ]
    },
    {
      "extensions": {
        "KHR_lights_punctual": {
          "light": 8
        }
      },
      "name": "BufLight_red_2R",
      "rotation": [
        1,
        0,
        0,
        4.7414219217500886e-09
      ],
      "translation": [
        -0.9304637312889099,
        1.5323561429977417,
        10.444159507751465
      ]
    },
    {
      "extensions": {
        "KHR_lights_punctual": {
          "light": 9
        }
      },
      "name": "BufLight_red_2L",
      "rotation": [
        1,
        0,
        0,
        4.7414219217500886e-09
      ],
      "translation": [
        0.929997444152832,
        1.5323561429977417,
        10.444159507751465
      ]
    },
    {
      "extensions": {
        "KHR_lights_punctual": {
          "light": 10
        }
      },
      "name": "BufLight_red_1R",
      "translation": [
        0.9326672554016113,
        1.5355302095413208,
        -10.506701469421387
      ]
    },
    {
      "extensions": {
        "KHR_lights_punctual": {
          "light": 11
        }
      },
      "name": "BufLight_red_1L",
      "translation": [
        -0.9261957406997681,
        1.5323561429977417,
        -10.506701469421387
      ]
    },
    {
      "mesh": 24,
      "name": "Display_number_2L",
      "rotation": [
        0,
        -0.9227736592292786,
        0,
        0.3853423595428467
      ],
      "translation": [
        1.325894832611084,
        1.7695980072021484,
        10.184828758239746
      ]
    },
    {
      "mesh": 24,
      "name": "Display_number_2R",
      "rotation": [
        0,
        0.9229417443275452,
        0,
        0.3849397301673889
      ],
      "translation": [
        -1.3235126733779907,
        1.7688850164413452,
        10.187444686889648
      ]
    },
    {
      "mesh": 24,
      "name": "Display_number_1L",
      "rotation": [
        0,
        0.3856644928455353,
        0,
        0.9226391315460205
      ],
      "translation": [
        -1.3258768320083618,
        1.7743451595306396,
        -10.247410774230957
      ]
    },
    {
      "mesh": 24,
      "name": "Display_number_1R",
      "rotation": [
        0,
        -0.3851008117198944,
        0,
        0.9228745102882385
      ],
      "translation": [
        1.3243048191070557,
        1.7764642238616943,
        -10.248894691467285
      ]
    },
    {
      "mesh": 25,
      "name": "BufLight_white_1R_emis"
    },
    {
      "mesh": 26,
      "name": "BufLight_red_1R_emis"
    },
    {
      "mesh": 27,
      "name": "BufLight_white_1L_emis"
    },
    {
      "mesh": 28,
      "name": "BufLight_red_1L_emis"
    },
    {
      "mesh": 29,
      "name": "BufLight_white_2R_emis"
    },
    {
      "mesh": 30,
      "name": "BufLight_red_2R_emis"
    },
    {
      "mesh": 31,
      "name": "BufLight_white_2L_emis"
    },
    {
      "mesh": 32,
      "name": "BufLight_red_2L_emis"
    },
    {
      "mesh": 33,
      "name": "Stekla_cab1"
    },
    {
      "mesh": 34,
      "name": "Stekla_cab2"
    },
    {
      "mesh": 35,
      "name": "Stekla_cab2.001"
    },
    {
      "mesh": 36,
      "name": "Spotlight_bwd"
    },
    {
      "mesh": 37,
      "name": "Spotlight_fwd"
    }
  ],
  "samplers": [
    {
      "magFilter": 9729,
      "minFilter": 9987
    }
  ],
  "scene": 0,
  "scenes": [
    {
      "name": "Scene",
      "nodes": [
        0,
        1,
        2,
        3,
        4,
        5,
        6,
        7,
        8,
        9,
        10,
        11,
        12,
        13,
        14,
        15,
        16,
        17,
        18,
        19,
        20,
        21,
        22,
        23,
        24,
        25,
        26,
        27,
        28,
        29,
        30,
        31,
        32,
        33,
        34,
        35,
        36,
        37,
        38,
        39,
        40,
        41,
        42,
        43,
        44,
        45,
        46,
        47,
        48,
        49,
        50,
        51,
        52
      ]
    }
  ],
  "textures": [
    {
      "sampler": 0,
      "source": 0
    },
    {
      "sampler": 0,
      "source": 1
    },
    {
      "sampler": 0,
      "source": 2
    },
    {
      "sampler": 0,
      "source": 3
    },
    {
      "sampler": 0,
      "source": 4
    },
    {
      "sampler": 0,
      "source": 5
    },
    {
      "sampler": 0,
      "source": 6
    },
    {
      "sampler": 0,
      "source": 7
    },
    {
      "sampler": 0,
      "source": 7
    },
    {
      "sampler": 0,
      "source": 8
    },
    {
      "sampler": 0,
      "source": 9
    },
    {
      "sampler": 0,
      "source": 5
    }
  ]
}