{
	"asset":{
		"generator":"Khronos glTF Blender I/O v4.4.56",
		"version":"2.0"
	},
	"extensionsUsed":[
		"KHR_lights_punctual"
	],
	"extensionsRequired":[
		"KHR_lights_punctual"
	],
	"extensions":{
		"KHR_lights_punctual":{
			"lights":[
				{
					"color":[
						1,
						1,
						1
					],
					"intensity":978.3254351858807,
					"spot":{
						"innerConeAngle":0,
						"outerConeAngle":1.0471975803375244
					},
					"type":"spot",
					"range":200,
					"name":"SpotLight_low2"
				},
				{
					"color":[
						1,
						1,
						1
					],
					"intensity":978.3254351858807,
					"spot":{
						"innerConeAngle":0,
						"outerConeAngle":1.0471975803375244
					},
					"type":"spot",
					"range":200,
					"name":"SpotLight_low1"
				},
				{
					"color":[
						1,
						1,
						1
					],
					"intensity":97832.54351858806,
					"spot":{
						"innerConeAngle":0,
						"outerConeAngle":0.05235987901687622
					},
					"type":"spot",
					"range":200,
					"name":"SpotLight_high2"
				},
				{
					"color":[
						1,
						1,
						1
					],
					"intensity":97832.54351858806,
					"spot":{
						"innerConeAngle":0,
						"outerConeAngle":0.05235987901687622
					},
					"type":"spot",
					"range":200,
					"name":"SpotLight_high1"
				},
				{
					"color":[
						1,
						1,
						1
					],
					"intensity":978.3254351858807,
					"spot":{
						"innerConeAngle":0,
						"outerConeAngle":1.0471975803375244
					},
					"type":"spot",
					"range":200,
					"name":"BufLight_white_2R"
				},
				{
					"color":[
						1,
						1,
						1
					],
					"intensity":978.3254351858807,
					"spot":{
						"innerConeAngle":0,
						"outerConeAngle":1.0471975803375244
					},
					"type":"spot",
					"range":200,
					"name":"BufLight_white_2L"
				},
				{
					"color":[
						1,
						1,
						1
					],
					"intensity":978.3254351858807,
					"spot":{
						"innerConeAngle":0,
						"outerConeAngle":1.0471975803375244
					},
					"type":"spot",
					"range":200,
					"name":"BufLight_white_1R"
				},
				{
					"color":[
						1,
						1,
						1
					],
					"intensity":978.3254351858807,
					"spot":{
						"innerConeAngle":0,
						"outerConeAngle":1.0471975803375244
					},
					"type":"spot",
					"range":200,
					"name":"BufLight_white_1L"
				},
				{
					"color":[
						1,
						0,
						0
					],
					"intensity":978.3254351858807,
					"spot":{
						"innerConeAngle":0,
						"outerConeAngle":1.0471975803375244
					},
					"type":"spot",
					"range":200,
					"name":"BufLight_red_2R"
				},
				{
					"color":[
						1,
						0,
						0
					],
					"intensity":978.3254351858807,
					"spot":{
						"innerConeAngle":0,
						"outerConeAngle":1.0471975803375244
					},
					"type":"spot",
					"range":200,
					"name":"BufLight_red_2L"
				},
				{
					"color":[
						1,
						0,
						0
					],
					"intensity":978.3254351858807,
					"spot":{
						"innerConeAngle":0,
						"outerConeAngle":1.0471975803375244
					},
					"type":"spot",
					"range":200,
					"name":"BufLight_red_1R"
				},
				{
					"color":[
						1,
						0,
						0
					],
					"intensity":978.3254351858807,
					"spot":{
						"innerConeAngle":0,
						"outerConeAngle":1.0471975803375244
					},
					"type":"spot",
					"range":200,
					"name":"BufLight_red_1L"
				}
			]
		}
	},
	"scene":0,
	"scenes":[
		{
			"name":"Scene",
			"nodes":[
				0,
				1,
				2,
				3,
				4,
				5,
				6,
				7,
				8,
				9,
				10,
				11,
				12,
				13,
				14,
				15,
				16,
				17,
				18,
				19,
				20,
				21,
				22,
				23,
				24,
				25,
				26,
				27,
				28,
				29,
				30,
				31,
				32,
				33,
				34,
				35
			]
		}
	],
	"nodes":[
		{
			"mesh":0,
			"name":"Plane14",
			"translation":[
				-0.27902650833129883,
				0,
				-0.9943227767944336
			]
		},
		{
			"mesh":1,
			"name":"Plane13",
			"translation":[
				-0.39164412021636963,
				0,
				-0.9943227767944336
			]
		},
		{
			"mesh":2,
			"name":"Plane12",
			"translation":[
				-0.5047153830528259,
				0,
				-0.9943227767944336
			]
		},
		{
			"mesh":3,
			"name":"Plane11",
			"translation":[
				-0.05356992036104202,
				0,
				-0.9943227767944336
			]
		},
		{
			"mesh":4,
			"name":"Plane10",
			"translation":[
				-0.1661021113395691,
				0,
				-0.9943227767944336
			]
		},
		{
			"mesh":5,
			"name":"Plane09",
			"translation":[
				0.05904769152402878,
				0,
				-0.9943227767944336
			]
		},
		{
			"mesh":6,
			"name":"Plane08",
			"translation":[
				0.1698642373085022,
				0,
				-0.9943227767944336
			]
		},
		{
			"mesh":7,
			"name":"Plane07",
			"translation":[
				0.5066943764686584,
				0,
				-0.9943227767944336
			]
		},
		{
			"mesh":8,
			"name":"Plane06",
			"translation":[
				0.39407676458358765,
				0,
				-0.9943227767944336
			]
		},
		{
			"mesh":9,
			"name":"Plane05",
			"translation":[
				0.28262412548065186,
				0,
				-0.9943227767944336
			]
		},
		{
			"mesh":10,
			"name":"Telega"
		},
		{
			"mesh":11,
			"name":"Wheel-3",
			"translation":[
				0,
				0.6066147089004517,
				-3.9837071895599365
			]
		},
		{
			"mesh":12,
			"name":"Wheel-2",
			"translation":[
				0,
				0.6066147089004517,
				-5.958571910858154
			]
		},
		{
			"mesh":13,
			"name":"Wheel-1",
			"translation":[
				0,
				0.6066148281097412,
				-8.294025421142578
			]
		},
		{
			"mesh":14,
			"name":"Telega01"
		},
		{
			"mesh":15,
			"name":"Wheel-4",
			"translation":[
				0,
				0.6066146492958069,
				3.927650213241577
			]
		},
		{
			"mesh":16,
			"name":"Wheel-5",
			"translation":[
				0,
				0.6066146492958069,
				5.902498722076416
			]
		},
		{
			"mesh":17,
			"name":"Wheel-6",
			"translation":[
				0,
				0.6066148281097412,
				8.237944602966309
			]
		},
		{
			"mesh":18,
			"name":"Detali"
		},
		{
			"mesh":19,
			"name":"Reshetka n"
		},
		{
			"mesh":20,
			"name":"kuzov"
		},
		{
			"mesh":21,
			"name":"sa3"
		},
		{
			"mesh":22,
			"name":"Antena"
		},
		{
			"mesh":23,
			"name":"Krysha"
		},
		{
			"extensions":{
				"KHR_lights_punctual":{
					"light":0
				}
			},
			"name":"SpotLight_low2",
			"rotation":[
				1,
				0,
				0,
				4.7414219217500886e-09
			],
			"translation":[
				0,
				2.700000047683716,
				10.4399995803833
			]
		},
		{
			"extensions":{
				"KHR_lights_punctual":{
					"light":1
				}
			},
			"name":"SpotLight_low1",
			"translation":[
				0,
				2.700000047683716,
				-10.4399995803833
			]
		},
		{
			"extensions":{
				"KHR_lights_punctual":{
					"light":2
				}
			},
			"name":"SpotLight_high2",
			"rotation":[
				1,
				0,
				0,
				4.7414219217500886e-09
			],
			"translation":[
				0,
				2.700000047683716,
				10.4399995803833
			]
		},
		{
			"extensions":{
				"KHR_lights_punctual":{
					"light":3
				}
			},
			"name":"SpotLight_high1",
			"translation":[
				0,
				2.700000047683716,
				-10.4399995803833
			]
		},
		{
			"extensions":{
				"KHR_lights_punctual":{
					"light":4
				}
			},
			"name":"BufLight_white_2R",
			"rotation":[
				1,
				0,
				0,
				4.7414219217500886e-09
			],
			"translation":[
				-0.9383355379104614,
				1.7675203084945679,
				10.470560073852539
			]
		},
		{
			"extensions":{
				"KHR_lights_punctual":{
					"light":5
				}
			},
			"name":"BufLight_white_2L",
			"rotation":[
				1,
				0,
				0,
				4.7414219217500886e-09
			],
			"translation":[
				0.9246373176574707,
				1.7675204277038574,
				10.470560073852539
			]
		},
		{
			"extensions":{
				"KHR_lights_punctual":{
					"light":6
				}
			},
			"name":"BufLight_white_1R",
			"translation":[
				0.9395458698272705,
				1.7675204277038574,
				-10.533102035522461
			]
		},
		{
			"extensions":{
				"KHR_lights_punctual":{
					"light":7
				}
			},
			"name":"BufLight_white_1L",
			"translation":[
				-0.9220981001853943,
				1.7675203084945679,
				-10.533102035522461
			]
		},
		{
			"extensions":{
				"KHR_lights_punctual":{
					"light":8
				}
			},
			"name":"BufLight_red_2R",
			"rotation":[
				1,
				0,
				0,
				4.7414219217500886e-09
			],
			"translation":[
				-0.9304637312889099,
				1.5323561429977417,
				10.444159507751465
			]
		},
		{
			"extensions":{
				"KHR_lights_punctual":{
					"light":9
				}
			},
			"name":"BufLight_red_2L",
			"rotation":[
				1,
				0,
				0,
				4.7414219217500886e-09
			],
			"translation":[
				0.929997444152832,
				1.5323561429977417,
				10.444159507751465
			]
		},
		{
			"extensions":{
				"KHR_lights_punctual":{
					"light":10
				}
			},
			"name":"BufLight_red_1R",
			"translation":[
				0.9326672554016113,
				1.5355302095413208,
				-10.506701469421387
			]
		},
		{
			"extensions":{
				"KHR_lights_punctual":{
					"light":11
				}
			},
			"name":"BufLight_red_1L",
			"translation":[
				-0.9261957406997681,
				1.5323561429977417,
				-10.506701469421387
			]
		}
	],
	"materials":[
		{
			"doubleSided":true,
			"name":"Material_krysha",
			"pbrMetallicRoughness":{
				"baseColorTexture":{
					"index":0
				},
				"metallicFactor":0,
				"roughnessFactor":0.5
			}
		},
		{
			"doubleSided":true,
			"name":"Material_telega_r",
			"pbrMetallicRoughness":{
				"baseColorTexture":{
					"index":1
				},
				"metallicFactor":0,
				"roughnessFactor":0.5
			}
		},
		{
			"doubleSided":true,
			"name":"Material_kp",
			"pbrMetallicRoughness":{
				"baseColorTexture":{
					"index":2
				},
				"metallicFactor":0,
				"roughnessFactor":0.5
			}
		},
		{
			"doubleSided":true,
			"name":"Material_detali",
			"pbrMetallicRoughness":{
				"baseColorTexture":{
					"index":3
				},
				"metallicFactor":0,
				"roughnessFactor":0.5
			}
		},
		{
			"doubleSided":true,
			"name":"Material_kzov",
			"pbrMetallicRoughness":{
				"baseColorTexture":{
					"index":4
				},
				"metallicFactor":0,
				"roughnessFactor":0.5
			}
		},
		{
			"alphaMode":"BLEND",
			"doubleSided":true,
			"name":"Material_sa3",
			"pbrMetallicRoughness":{
				"baseColorTexture":{
					"index":5
				},
				"metallicFactor":0,
				"roughnessFactor":0.5
			}
		}
	],
	"meshes":[
		{
			"name":"Plane14",
			"primitives":[
				{
					"attributes":{
						"POSITION":0,
						"NORMAL":1,
						"TEXCOORD_0":2
					},
					"indices":3,
					"material":0
				}
			]
		},
		{
			"name":"Plane13",
			"primitives":[
				{
					"attributes":{
						"POSITION":4,
						"NORMAL":5,
						"TEXCOORD_0":6
					},
					"indices":3,
					"material":0
				}
			]
		},
		{
			"name":"Plane12",
			"primitives":[
				{
					"attributes":{
						"POSITION":7,
						"NORMAL":8,
						"TEXCOORD_0":9
					},
					"indices":3,
					"material":0
				}
			]
		},
		{
			"name":"Plane11",
			"primitives":[
				{
					"attributes":{
						"POSITION":10,
						"NORMAL":11,
						"TEXCOORD_0":12
					},
					"indices":3,
					"material":0
				}
			]
		},
		{
			"name":"Plane10",
			"primitives":[
				{
					"attributes":{
						"POSITION":13,
						"NORMAL":14,
						"TEXCOORD_0":15
					},
					"indices":3,
					"material":0
				}
			]
		},
		{
			"name":"Plane09",
			"primitives":[
				{
					"attributes":{
						"POSITION":16,
						"NORMAL":17,
						"TEXCOORD_0":18
					},
					"indices":3,
					"material":0
				}
			]
		},
		{
			"name":"Plane08",
			"primitives":[
				{
					"attributes":{
						"POSITION":19,
						"NORMAL":20,
						"TEXCOORD_0":21
					},
					"indices":3,
					"material":0
				}
			]
		},
		{
			"name":"Plane07",
			"primitives":[
				{
					"attributes":{
						"POSITION":22,
						"NORMAL":23,
						"TEXCOORD_0":24
					},
					"indices":3,
					"material":0
				}
			]
		},
		{
			"name":"Plane06",
			"primitives":[
				{
					"attributes":{
						"POSITION":25,
						"NORMAL":26,
						"TEXCOORD_0":27
					},
					"indices":3,
					"material":0
				}
			]
		},
		{
			"name":"Plane05",
			"primitives":[
				{
					"attributes":{
						"POSITION":28,
						"NORMAL":29,
						"TEXCOORD_0":30
					},
					"indices":3,
					"material":0
				}
			]
		},
		{
			"name":"Telega",
			"primitives":[
				{
					"attributes":{
						"POSITION":31,
						"NORMAL":32,
						"TEXCOORD_0":33
					},
					"indices":34,
					"material":1
				}
			]
		},
		{
			"name":"wheel3",
			"primitives":[
				{
					"attributes":{
						"POSITION":35,
						"NORMAL":36,
						"TEXCOORD_0":37
					},
					"indices":38,
					"material":2
				}
			]
		},
		{
			"name":"wheel2",
			"primitives":[
				{
					"attributes":{
						"POSITION":39,
						"NORMAL":40,
						"TEXCOORD_0":41
					},
					"indices":42,
					"material":2
				}
			]
		},
		{
			"name":"wheel1",
			"primitives":[
				{
					"attributes":{
						"POSITION":43,
						"NORMAL":44,
						"TEXCOORD_0":45
					},
					"indices":46,
					"material":2
				}
			]
		},
		{
			"name":"Telega01",
			"primitives":[
				{
					"attributes":{
						"POSITION":47,
						"NORMAL":48,
						"TEXCOORD_0":49
					},
					"indices":50,
					"material":1
				}
			]
		},
		{
			"name":"wheel06",
			"primitives":[
				{
					"attributes":{
						"POSITION":51,
						"NORMAL":52,
						"TEXCOORD_0":53
					},
					"indices":54,
					"material":2
				}
			]
		},
		{
			"name":"wheel05",
			"primitives":[
				{
					"attributes":{
						"POSITION":55,
						"NORMAL":56,
						"TEXCOORD_0":57
					},
					"indices":58,
					"material":2
				}
			]
		},
		{
			"name":"wheel04",
			"primitives":[
				{
					"attributes":{
						"POSITION":59,
						"NORMAL":60,
						"TEXCOORD_0":61
					},
					"indices":62,
					"material":2
				}
			]
		},
		{
			"name":"Detali",
			"primitives":[
				{
					"attributes":{
						"POSITION":63,
						"NORMAL":64,
						"TEXCOORD_0":65
					},
					"indices":66,
					"material":3
				}
			]
		},
		{
			"name":"Reshetka n",
			"primitives":[
				{
					"attributes":{
						"POSITION":67,
						"NORMAL":68,
						"TEXCOORD_0":69
					},
					"indices":70,
					"material":0
				}
			]
		},
		{
			"name":"kuzov",
			"primitives":[
				{
					"attributes":{
						"POSITION":71,
						"NORMAL":72,
						"TEXCOORD_0":73
					},
					"indices":74,
					"material":4
				}
			]
		},
		{
			"name":"sa3",
			"primitives":[
				{
					"attributes":{
						"POSITION":75,
						"NORMAL":76,
						"TEXCOORD_0":77
					},
					"indices":78,
					"material":5
				}
			]
		},
		{
			"name":"Antena",
			"primitives":[
				{
					"attributes":{
						"POSITION":79,
						"NORMAL":80,
						"TEXCOORD_0":81
					},
					"indices":82,
					"material":0
				}
			]
		},
		{
			"name":"Krysha",
			"primitives":[
				{
					"attributes":{
						"POSITION":83,
						"NORMAL":84,
						"TEXCOORD_0":85
					},
					"indices":86,
					"material":0
				}
			]
		}
	],
	"textures":[
		{
			"sampler":0,
			"source":0
		},
		{
			"sampler":0,
			"source":1
		},
		{
			"sampler":0,
			"source":2
		},
		{
			"sampler":0,
			"source":3
		},
		{
			"sampler":0,
			"source":4
		},
		{
			"sampler":0,
			"source":5
		}
	],
	"images":[
		{
			"mimeType":"image/png",
			"name":"krysha",
			"uri":"textures/krysha.png"
		},
		{
			"mimeType":"image/png",
			"name":"telega_r",
			"uri":"textures/telega_r.png"
		},
		{
			"mimeType":"image/png",
			"name":"kp",
			"uri":"textures/kp.png"
		},
		{
			"mimeType":"image/png",
			"name":"detali",
			"uri":"textures/detali.png"
		},
		{
			"mimeType":"image/png",
			"name":"kzov",
			"uri":"textures/kzov.png"
		},
		{
			"mimeType":"image/png",
			"name":"sa-3",
			"uri":"textures/sa-3.png"
		}
	],
	"accessors":[
		{
			"bufferView":0,
			"componentType":5126,
			"count":4,
			"max":[
				-0.22344405949115753,
				4.88564920425415,
				5.459801197052002
			],
			"min":[
				-0.33644405007362366,
				4.88564920425415,
				3.741462230682373
			],
			"type":"VEC3"
		},
		{
			"bufferView":1,
			"componentType":5126,
			"count":4,
			"type":"VEC3"
		},
		{
			"bufferView":2,
			"componentType":5126,
			"count":4,
			"type":"VEC2"
		},
		{
			"bufferView":3,
			"componentType":5123,
			"count":6,
			"type":"SCALAR"
		},
		{
			"bufferView":4,
			"componentType":5126,
			"count":4,
			"max":[
				-0.3360616862773895,
				4.88564920425415,
				5.459801197052002
			],
			"min":[
				-0.44906166195869446,
				4.88564920425415,
				3.741462230682373
			],
			"type":"VEC3"
		},
		{
			"bufferView":5,
			"componentType":5126,
			"count":4,
			"type":"VEC3"
		},
		{
			"bufferView":6,
			"componentType":5126,
			"count":4,
			"type":"VEC2"
		},
		{
			"bufferView":7,
			"componentType":5126,
			"count":4,
			"max":[
				-0.4491329491138458,
				4.88564920425415,
				5.459801197052002
			],
			"min":[
				-0.5621329545974731,
				4.88564920425415,
				3.741462230682373
			],
			"type":"VEC3"
		},
		{
			"bufferView":8,
			"componentType":5126,
			"count":4,
			"type":"VEC3"
		},
		{
			"bufferView":9,
			"componentType":5126,
			"count":4,
			"type":"VEC2"
		},
		{
			"bufferView":10,
			"componentType":5126,
			"count":4,
			"max":[
				0.0020125247538089752,
				4.88564920425415,
				5.459801197052002
			],
			"min":[
				-0.11098746955394745,
				4.88564920425415,
				3.741462230682373
			],
			"type":"VEC3"
		},
		{
			"bufferView":11,
			"componentType":5126,
			"count":4,
			"type":"VEC3"
		},
		{
			"bufferView":12,
			"componentType":5126,
			"count":4,
			"type":"VEC2"
		},
		{
			"bufferView":13,
			"componentType":5126,
			"count":4,
			"max":[
				-0.1105196624994278,
				4.88564920425415,
				5.459801197052002
			],
			"min":[
				-0.22351966798305511,
				4.88564920425415,
				3.741462230682373
			],
			"type":"VEC3"
		},
		{
			"bufferView":14,
			"componentType":5126,
			"count":4,
			"type":"VEC3"
		},
		{
			"bufferView":15,
			"componentType":5126,
			"count":4,
			"type":"VEC2"
		},
		{
			"bufferView":16,
			"componentType":5126,
			"count":4,
			"max":[
				0.11463013291358948,
				4.88564920425415,
				5.459801197052002
			],
			"min":[
				0.0016301386058330536,
				4.88564920425415,
				3.741462230682373
			],
			"type":"VEC3"
		},
		{
			"bufferView":17,
			"componentType":5126,
			"count":4,
			"type":"VEC3"
		},
		{
			"bufferView":18,
			"componentType":5126,
			"count":4,
			"type":"VEC2"
		},
		{
			"bufferView":19,
			"componentType":5126,
			"count":4,
			"max":[
				0.2254466861486435,
				4.88564920425415,
				5.459801197052002
			],
			"min":[
				0.11244668066501617,
				4.88564920425415,
				3.741462230682373
			],
			"type":"VEC3"
		},
		{
			"bufferView":20,
			"componentType":5126,
			"count":4,
			"type":"VEC3"
		},
		{
			"bufferView":21,
			"componentType":5126,
			"count":4,
			"type":"VEC2"
		},
		{
			"bufferView":22,
			"componentType":5126,
			"count":4,
			"max":[
				0.5622768402099609,
				4.88564920425415,
				5.459801197052002
			],
			"min":[
				0.4492768347263336,
				4.88564920425415,
				3.741462230682373
			],
			"type":"VEC3"
		},
		{
			"bufferView":23,
			"componentType":5126,
			"count":4,
			"type":"VEC3"
		},
		{
			"bufferView":24,
			"componentType":5126,
			"count":4,
			"type":"VEC2"
		},
		{
			"bufferView":25,
			"componentType":5126,
			"count":4,
			"max":[
				0.44965919852256775,
				4.88564920425415,
				5.459801197052002
			],
			"min":[
				0.3366592228412628,
				4.88564920425415,
				3.741462230682373
			],
			"type":"VEC3"
		},
		{
			"bufferView":26,
			"componentType":5126,
			"count":4,
			"type":"VEC3"
		},
		{
			"bufferView":27,
			"componentType":5126,
			"count":4,
			"type":"VEC2"
		},
		{
			"bufferView":28,
			"componentType":5126,
			"count":4,
			"max":[
				0.33820655941963196,
				4.88564920425415,
				5.459801197052002
			],
			"min":[
				0.22520656883716583,
				4.88564920425415,
				3.741462230682373
			],
			"type":"VEC3"
		},
		{
			"bufferView":29,
			"componentType":5126,
			"count":4,
			"type":"VEC3"
		},
		{
			"bufferView":30,
			"componentType":5126,
			"count":4,
			"type":"VEC2"
		},
		{
			"bufferView":31,
			"componentType":5126,
			"count":56008,
			"max":[
				1.5860825777053833,
				1.5224239826202393,
				-2.637056827545166
			],
			"min":[
				-1.5860812664031982,
				0.009706346318125725,
				-9.42786979675293
			],
			"type":"VEC3"
		},
		{
			"bufferView":32,
			"componentType":5126,
			"count":56008,
			"type":"VEC3"
		},
		{
			"bufferView":33,
			"componentType":5126,
			"count":56008,
			"type":"VEC2"
		},
		{
			"bufferView":34,
			"componentType":5123,
			"count":66798,
			"type":"SCALAR"
		},
		{
			"bufferView":35,
			"componentType":5126,
			"count":1757,
			"max":[
				0.8752087950706482,
				0.635886549949646,
				0.6419475078582764
			],
			"min":[
				-0.8752110004425049,
				-0.631532609462738,
				-0.6420185565948486
			],
			"type":"VEC3"
		},
		{
			"bufferView":36,
			"componentType":5126,
			"count":1757,
			"type":"VEC3"
		},
		{
			"bufferView":37,
			"componentType":5126,
			"count":1757,
			"type":"VEC2"
		},
		{
			"bufferView":38,
			"componentType":5123,
			"count":2496,
			"type":"SCALAR"
		},
		{
			"bufferView":39,
			"componentType":5126,
			"count":1760,
			"max":[
				0.8752090930938721,
				0.635886549949646,
				0.6419472694396973
			],
			"min":[
				-0.8752106428146362,
				-0.631532609462738,
				-0.6420187950134277
			],
			"type":"VEC3"
		},
		{
			"bufferView":40,
			"componentType":5126,
			"count":1760,
			"type":"VEC3"
		},
		{
			"bufferView":41,
			"componentType":5126,
			"count":1760,
			"type":"VEC2"
		},
		{
			"bufferView":42,
			"componentType":5123,
			"count":2496,
			"type":"SCALAR"
		},
		{
			"bufferView":43,
			"componentType":5126,
			"count":1762,
			"max":[
				0.8752090930938721,
				0.635886549949646,
				0.6419486999511719
			],
			"min":[
				-0.8752106428146362,
				-0.631532609462738,
				-0.6420173645019531
			],
			"type":"VEC3"
		},
		{
			"bufferView":44,
			"componentType":5126,
			"count":1762,
			"type":"VEC3"
		},
		{
			"bufferView":45,
			"componentType":5126,
			"count":1762,
			"type":"VEC2"
		},
		{
			"bufferView":46,
			"componentType":5123,
			"count":2496,
			"type":"SCALAR"
		},
		{
			"bufferView":47,
			"componentType":5126,
			"count":56024,
			"max":[
				1.5860811471939087,
				1.5224238634109497,
				9.371798515319824
			],
			"min":[
				-1.5860828161239624,
				0.009705455973744392,
				2.5809850692749023
			],
			"type":"VEC3"
		},
		{
			"bufferView":48,
			"componentType":5126,
			"count":56024,
			"type":"VEC3"
		},
		{
			"bufferView":49,
			"componentType":5126,
			"count":56024,
			"type":"VEC2"
		},
		{
			"bufferView":50,
			"componentType":5123,
			"count":66798,
			"type":"SCALAR"
		},
		{
			"bufferView":51,
			"componentType":5126,
			"count":1762,
			"max":[
				0.8752115368843079,
				0.6358866095542908,
				0.6420042514801025
			],
			"min":[
				-0.8752085566520691,
				-0.6315326690673828,
				-0.6419625282287598
			],
			"type":"VEC3"
		},
		{
			"bufferView":52,
			"componentType":5126,
			"count":1762,
			"type":"VEC3"
		},
		{
			"bufferView":53,
			"componentType":5126,
			"count":1762,
			"type":"VEC2"
		},
		{
			"bufferView":54,
			"componentType":5123,
			"count":2496,
			"type":"SCALAR"
		},
		{
			"bufferView":55,
			"componentType":5126,
			"count":1764,
			"max":[
				0.8752112984657288,
				0.6358866095542908,
				0.6420207023620605
			],
			"min":[
				-0.8752087950706482,
				-0.6315326690673828,
				-0.6419463157653809
			],
			"type":"VEC3"
		},
		{
			"bufferView":56,
			"componentType":5126,
			"count":1764,
			"type":"VEC3"
		},
		{
			"bufferView":57,
			"componentType":5126,
			"count":1764,
			"type":"VEC2"
		},
		{
			"bufferView":58,
			"componentType":5123,
			"count":2496,
			"type":"SCALAR"
		},
		{
			"bufferView":59,
			"componentType":5126,
			"count":1757,
			"max":[
				0.8752109408378601,
				0.6358864307403564,
				0.6420259475708008
			],
			"min":[
				-0.8752091526985168,
				-0.6315327286720276,
				-0.6419405937194824
			],
			"type":"VEC3"
		},
		{
			"bufferView":60,
			"componentType":5126,
			"count":1757,
			"type":"VEC3"
		},
		{
			"bufferView":61,
			"componentType":5126,
			"count":1757,
			"type":"VEC2"
		},
		{
			"bufferView":62,
			"componentType":5123,
			"count":2496,
			"type":"SCALAR"
		},
		{
			"bufferView":63,
			"componentType":5126,
			"count":30141,
			"max":[
				1.6254730224609375,
				5.230343818664551,
				10.543496131896973
			],
			"min":[
				-1.6254727840423584,
				0.2636229991912842,
				-10.606038093566895
			],
			"type":"VEC3"
		},
		{
			"bufferView":64,
			"componentType":5126,
			"count":30141,
			"type":"VEC3"
		},
		{
			"bufferView":65,
			"componentType":5126,
			"count":30141,
			"type":"VEC2"
		},
		{
			"bufferView":66,
			"componentType":5123,
			"count":35646,
			"type":"SCALAR"
		},
		{
			"bufferView":67,
			"componentType":5126,
			"count":1000,
			"max":[
				1.0198053121566772,
				5.021650314331055,
				7.460491180419922
			],
			"min":[
				-1.0185023546218872,
				4.967052459716797,
				3.720599412918091
			],
			"type":"VEC3"
		},
		{
			"bufferView":68,
			"componentType":5126,
			"count":1000,
			"type":"VEC3"
		},
		{
			"bufferView":69,
			"componentType":5126,
			"count":1000,
			"type":"VEC2"
		},
		{
			"bufferView":70,
			"componentType":5123,
			"count":1200,
			"type":"SCALAR"
		},
		{
			"bufferView":71,
			"componentType":5126,
			"count":19565,
			"max":[
				1.7437103986740112,
				4.095462799072266,
				10.434797286987305
			],
			"min":[
				-1.7437119483947754,
				1.4421143531799316,
				-10.497339248657227
			],
			"type":"VEC3"
		},
		{
			"bufferView":72,
			"componentType":5126,
			"count":19565,
			"type":"VEC3"
		},
		{
			"bufferView":73,
			"componentType":5126,
			"count":19565,
			"type":"VEC2"
		},
		{
			"bufferView":74,
			"componentType":5123,
			"count":25377,
			"type":"SCALAR"
		},
		{
			"bufferView":75,
			"componentType":5126,
			"count":1690,
			"max":[
				0.2748969793319702,
				1.2490932941436768,
				10.785741806030273
			],
			"min":[
				-0.27489691972732544,
				0.7943487167358398,
				-10.848695755004883
			],
			"type":"VEC3"
		},
		{
			"bufferView":76,
			"componentType":5126,
			"count":1690,
			"type":"VEC3"
		},
		{
			"bufferView":77,
			"componentType":5126,
			"count":1690,
			"type":"VEC2"
		},
		{
			"bufferView":78,
			"componentType":5123,
			"count":1962,
			"type":"SCALAR"
		},
		{
			"bufferView":79,
			"componentType":5126,
			"count":63,
			"max":[
				0.04316353797912598,
				5.2708420753479,
				-0.4235149025917053
			],
			"min":[
				-0.02011031098663807,
				4.806281089782715,
				-8.19186782836914
			],
			"type":"VEC3"
		},
		{
			"bufferView":80,
			"componentType":5126,
			"count":63,
			"type":"VEC3"
		},
		{
			"bufferView":81,
			"componentType":5126,
			"count":63,
			"type":"VEC2"
		},
		{
			"bufferView":82,
			"componentType":5123,
			"count":72,
			"type":"SCALAR"
		},
		{
			"bufferView":83,
			"componentType":5126,
			"count":2908,
			"max":[
				1.5682423114776611,
				4.9777984619140625,
				10.152347564697266
			],
			"min":[
				-1.5682429075241089,
				4.058241844177246,
				-10.214889526367188
			],
			"type":"VEC3"
		},
		{
			"bufferView":84,
			"componentType":5126,
			"count":2908,
			"type":"VEC3"
		},
		{
			"bufferView":85,
			"componentType":5126,
			"count":2908,
			"type":"VEC2"
		},
		{
			"bufferView":86,
			"componentType":5123,
			"count":3606,
			"type":"SCALAR"
		}
	],
	"bufferViews":[
		{
			"buffer":0,
			"byteLength":48,
			"byteOffset":0,
			"target":34962
		},
		{
			"buffer":0,
			"byteLength":48,
			"byteOffset":48,
			"target":34962
		},
		{
			"buffer":0,
			"byteLength":32,
			"byteOffset":96,
			"target":34962
		},
		{
			"buffer":0,
			"byteLength":12,
			"byteOffset":128,
			"target":34963
		},
		{
			"buffer":0,
			"byteLength":48,
			"byteOffset":140,
			"target":34962
		},
		{
			"buffer":0,
			"byteLength":48,
			"byteOffset":188,
			"target":34962
		},
		{
			"buffer":0,
			"byteLength":32,
			"byteOffset":236,
			"target":34962
		},
		{
			"buffer":0,
			"byteLength":48,
			"byteOffset":268,
			"target":34962
		},
		{
			"buffer":0,
			"byteLength":48,
			"byteOffset":316,
			"target":34962
		},
		{
			"buffer":0,
			"byteLength":32,
			"byteOffset":364,
			"target":34962
		},
		{
			"buffer":0,
			"byteLength":48,
			"byteOffset":396,
			"target":34962
		},
		{
			"buffer":0,
			"byteLength":48,
			"byteOffset":444,
			"target":34962
		},
		{
			"buffer":0,
			"byteLength":32,
			"byteOffset":492,
			"target":34962
		},
		{
			"buffer":0,
			"byteLength":48,
			"byteOffset":524,
			"target":34962
		},
		{
			"buffer":0,
			"byteLength":48,
			"byteOffset":572,
			"target":34962
		},
		{
			"buffer":0,
			"byteLength":32,
			"byteOffset":620,
			"target":34962
		},
		{
			"buffer":0,
			"byteLength":48,
			"byteOffset":652,
			"target":34962
		},
		{
			"buffer":0,
			"byteLength":48,
			"byteOffset":700,
			"target":34962
		},
		{
			"buffer":0,
			"byteLength":32,
			"byteOffset":748,
			"target":34962
		},
		{
			"buffer":0,
			"byteLength":48,
			"byteOffset":780,
			"target":34962
		},
		{
			"buffer":0,
			"byteLength":48,
			"byteOffset":828,
			"target":34962
		},
		{
			"buffer":0,
			"byteLength":32,
			"byteOffset":876,
			"target":34962
		},
		{
			"buffer":0,
			"byteLength":48,
			"byteOffset":908,
			"target":34962
		},
		{
			"buffer":0,
			"byteLength":48,
			"byteOffset":956,
			"target":34962
		},
		{
			"buffer":0,
			"byteLength":32,
			"byteOffset":1004,
			"target":34962
		},
		{
			"buffer":0,
			"byteLength":48,
			"byteOffset":1036,
			"target":34962
		},
		{
			"buffer":0,
			"byteLength":48,
			"byteOffset":1084,
			"target":34962
		},
		{
			"buffer":0,
			"byteLength":32,
			"byteOffset":1132,
			"target":34962
		},
		{
			"buffer":0,
			"byteLength":48,
			"byteOffset":1164,
			"target":34962
		},
		{
			"buffer":0,
			"byteLength":48,
			"byteOffset":1212,
			"target":34962
		},
		{
			"buffer":0,
			"byteLength":32,
			"byteOffset":1260,
			"target":34962
		},
		{
			"buffer":0,
			"byteLength":672096,
			"byteOffset":1292,
			"target":34962
		},
		{
			"buffer":0,
			"byteLength":672096,
			"byteOffset":673388,
			"target":34962
		},
		{
			"buffer":0,
			"byteLength":448064,
			"byteOffset":1345484,
			"target":34962
		},
		{
			"buffer":0,
			"byteLength":133596,
			"byteOffset":1793548,
			"target":34963
		},
		{
			"buffer":0,
			"byteLength":21084,
			"byteOffset":1927144,
			"target":34962
		},
		{
			"buffer":0,
			"byteLength":21084,
			"byteOffset":1948228,
			"target":34962
		},
		{
			"buffer":0,
			"byteLength":14056,
			"byteOffset":1969312,
			"target":34962
		},
		{
			"buffer":0,
			"byteLength":4992,
			"byteOffset":1983368,
			"target":34963
		},
		{
			"buffer":0,
			"byteLength":21120,
			"byteOffset":1988360,
			"target":34962
		},
		{
			"buffer":0,
			"byteLength":21120,
			"byteOffset":2009480,
			"target":34962
		},
		{
			"buffer":0,
			"byteLength":14080,
			"byteOffset":2030600,
			"target":34962
		},
		{
			"buffer":0,
			"byteLength":4992,
			"byteOffset":2044680,
			"target":34963
		},
		{
			"buffer":0,
			"byteLength":21144,
			"byteOffset":2049672,
			"target":34962
		},
		{
			"buffer":0,
			"byteLength":21144,
			"byteOffset":2070816,
			"target":34962
		},
		{
			"buffer":0,
			"byteLength":14096,
			"byteOffset":2091960,
			"target":34962
		},
		{
			"buffer":0,
			"byteLength":4992,
			"byteOffset":2106056,
			"target":34963
		},
		{
			"buffer":0,
			"byteLength":672288,
			"byteOffset":2111048,
			"target":34962
		},
		{
			"buffer":0,
			"byteLength":672288,
			"byteOffset":2783336,
			"target":34962
		},
		{
			"buffer":0,
			"byteLength":448192,
			"byteOffset":3455624,
			"target":34962
		},
		{
			"buffer":0,
			"byteLength":133596,
			"byteOffset":3903816,
			"target":34963
		},
		{
			"buffer":0,
			"byteLength":21144,
			"byteOffset":4037412,
			"target":34962
		},
		{
			"buffer":0,
			"byteLength":21144,
			"byteOffset":4058556,
			"target":34962
		},
		{
			"buffer":0,
			"byteLength":14096,
			"byteOffset":4079700,
			"target":34962
		},
		{
			"buffer":0,
			"byteLength":4992,
			"byteOffset":4093796,
			"target":34963
		},
		{
			"buffer":0,
			"byteLength":21168,
			"byteOffset":4098788,
			"target":34962
		},
		{
			"buffer":0,
			"byteLength":21168,
			"byteOffset":4119956,
			"target":34962
		},
		{
			"buffer":0,
			"byteLength":14112,
			"byteOffset":4141124,
			"target":34962
		},
		{
			"buffer":0,
			"byteLength":4992,
			"byteOffset":4155236,
			"target":34963
		},
		{
			"buffer":0,
			"byteLength":21084,
			"byteOffset":4160228,
			"target":34962
		},
		{
			"buffer":0,
			"byteLength":21084,
			"byteOffset":4181312,
			"target":34962
		},
		{
			"buffer":0,
			"byteLength":14056,
			"byteOffset":4202396,
			"target":34962
		},
		{
			"buffer":0,
			"byteLength":4992,
			"byteOffset":4216452,
			"target":34963
		},
		{
			"buffer":0,
			"byteLength":361692,
			"byteOffset":4221444,
			"target":34962
		},
		{
			"buffer":0,
			"byteLength":361692,
			"byteOffset":4583136,
			"target":34962
		},
		{
			"buffer":0,
			"byteLength":241128,
			"byteOffset":4944828,
			"target":34962
		},
		{
			"buffer":0,
			"byteLength":71292,
			"byteOffset":5185956,
			"target":34963
		},
		{
			"buffer":0,
			"byteLength":12000,
			"byteOffset":5257248,
			"target":34962
		},
		{
			"buffer":0,
			"byteLength":12000,
			"byteOffset":5269248,
			"target":34962
		},
		{
			"buffer":0,
			"byteLength":8000,
			"byteOffset":5281248,
			"target":34962
		},
		{
			"buffer":0,
			"byteLength":2400,
			"byteOffset":5289248,
			"target":34963
		},
		{
			"buffer":0,
			"byteLength":234780,
			"byteOffset":5291648,
			"target":34962
		},
		{
			"buffer":0,
			"byteLength":234780,
			"byteOffset":5526428,
			"target":34962
		},
		{
			"buffer":0,
			"byteLength":156520,
			"byteOffset":5761208,
			"target":34962
		},
		{
			"buffer":0,
			"byteLength":50754,
			"byteOffset":5917728,
			"target":34963
		},
		{
			"buffer":0,
			"byteLength":20280,
			"byteOffset":5968484,
			"target":34962
		},
		{
			"buffer":0,
			"byteLength":20280,
			"byteOffset":5988764,
			"target":34962
		},
		{
			"buffer":0,
			"byteLength":13520,
			"byteOffset":6009044,
			"target":34962
		},
		{
			"buffer":0,
			"byteLength":3924,
			"byteOffset":6022564,
			"target":34963
		},
		{
			"buffer":0,
			"byteLength":756,
			"byteOffset":6026488,
			"target":34962
		},
		{
			"buffer":0,
			"byteLength":756,
			"byteOffset":6027244,
			"target":34962
		},
		{
			"buffer":0,
			"byteLength":504,
			"byteOffset":6028000,
			"target":34962
		},
		{
			"buffer":0,
			"byteLength":144,
			"byteOffset":6028504,
			"target":34963
		},
		{
			"buffer":0,
			"byteLength":34896,
			"byteOffset":6028648,
			"target":34962
		},
		{
			"buffer":0,
			"byteLength":34896,
			"byteOffset":6063544,
			"target":34962
		},
		{
			"buffer":0,
			"byteLength":23264,
			"byteOffset":6098440,
			"target":34962
		},
		{
			"buffer":0,
			"byteLength":7212,
			"byteOffset":6121704,
			"target":34963
		}
	],
	"samplers":[
		{
			"magFilter":9729,
			"minFilter":9987
		}
	],
	"buffers":[
		{
			"byteLength":6128916,
			"uri":"tep70.bin"
		}
	]
}
